<?xml version="1.0" encoding="UTF-8" standalone="no"?>
<svg
   xmlns:dc="http://purl.org/dc/elements/1.1/"
   xmlns:cc="http://creativecommons.org/ns#"
   xmlns:rdf="http://www.w3.org/1999/02/22-rdf-syntax-ns#"
   xmlns:svg="http://www.w3.org/2000/svg"
   xmlns="http://www.w3.org/2000/svg"
   xmlns:sodipodi="http://sodipodi.sourceforge.net/DTD/sodipodi-0.dtd"
   xmlns:inkscape="http://www.inkscape.org/namespaces/inkscape"
   class="svglite"
   width="576.00pt"
   height="432.00pt"
   viewBox="0 0 576.00 432.00"
   version="1.1"
   id="svg148"
   sodipodi:docname="Saturation Plot.svg"
   inkscape:version="0.92.4 (5da689c313, 2019-01-14)">
  <metadata
     id="metadata152">
    <rdf:RDF>
      <cc:Work
         rdf:about="">
        <dc:format>image/svg+xml</dc:format>
        <dc:type
           rdf:resource="http://purl.org/dc/dcmitype/StillImage" />
      </cc:Work>
    </rdf:RDF>
  </metadata>
  <sodipodi:namedview
     pagecolor="#ffffff"
     bordercolor="#666666"
     borderopacity="1"
     objecttolerance="10"
     gridtolerance="10"
     guidetolerance="10"
     inkscape:pageopacity="0"
     inkscape:pageshadow="2"
     inkscape:window-width="1920"
     inkscape:window-height="1017"
     id="namedview150"
     showgrid="false"
     inkscape:zoom="1.1085372"
     inkscape:cx="533.30404"
     inkscape:cy="346.18213"
     inkscape:window-x="-8"
     inkscape:window-y="-8"
     inkscape:window-maximized="1"
     inkscape:current-layer="svg148" />
  <defs
     id="defs4">
    <style
       type="text/css"
       id="style2"><![CDATA[
    .svglite line, .svglite polyline, .svglite polygon, .svglite path, .svglite rect, .svglite circle {
      fill: none;
      stroke: #000000;
      stroke-linecap: round;
      stroke-linejoin: round;
      stroke-miterlimit: 10.00;
    }
    .svglite text {
      white-space: pre;
    }
  ]]></style>
  </defs>
  <polygon
     id="polygon34"
     style="fill:#0a4d80;fill-opacity:0.1;stroke:none;stroke-width:0.75;stroke-linecap:round;stroke-linejoin:round;stroke-miterlimit:10"
     points="82.22,325.98 83.5,320.91 84.79,315.93 86.08,311.07 87.37,306.31 88.66,301.65 89.94,297.08 91.23,292.61 92.52,288.23 93.81,283.94 95.09,279.73 96.38,275.62 97.67,271.58 98.96,267.64 100.24,263.77 101.53,259.98 102.82,256.28 104.11,252.65 105.39,249.09 106.68,245.62 107.97,242.21 109.26,238.88 110.54,235.61 111.83,232.42 113.12,229.29 114.41,226.23 115.7,223.23 116.98,220.29 118.27,217.41 119.56,214.6 120.85,211.84 122.13,209.14 123.42,206.5 124.71,203.91 126,201.38 127.28,198.9 128.57,196.47 129.86,194.09 131.15,191.75 132.43,189.47 133.72,187.24 135.01,185.05 136.3,182.91 137.58,180.81 138.87,178.76 140.16,176.75 141.45,174.78 142.74,172.85 144.02,170.97 145.31,169.12 146.6,167.31 147.89,165.54 149.17,163.81 150.46,162.11 151.75,160.45 153.04,158.82 154.32,157.23 155.61,155.67 156.9,154.14 158.19,152.65 159.47,151.18 160.76,149.74 162.05,148.34 163.34,146.96 164.62,145.62 165.91,144.3 167.2,143 168.49,141.74 169.78,140.5 171.06,139.29 172.35,138.1 173.64,136.94 174.93,135.81 176.21,134.69 177.5,133.6 178.79,132.54 180.08,131.49 181.36,130.47 182.65,129.47 183.94,128.49 185.23,127.53 186.51,126.58 187.8,125.66 189.09,124.76 190.38,123.88 191.66,123.01 192.95,122.17 194.24,121.34 195.53,120.52 196.82,119.73 198.1,118.95 199.39,118.19 200.68,117.44 201.97,116.71 203.25,115.99 204.54,115.29 205.83,114.61 207.12,113.94 208.4,113.28 209.69,112.64 210.98,112.01 212.27,111.39 213.55,110.79 214.84,110.2 216.13,109.62 217.42,109.05 218.7,108.5 219.99,107.95 221.28,107.42 222.57,106.9 223.86,106.39 225.14,105.89 226.43,105.4 227.72,104.92 229.01,104.45 230.29,103.99 231.58,103.54 232.87,103.1 234.16,102.67 235.44,102.24 236.73,101.83 238.02,101.43 239.31,101.03 240.59,100.64 241.88,100.26 243.17,99.89 244.46,99.52 245.74,99.17 247.03,98.82 248.32,98.48 249.61,98.14 250.9,97.81 252.18,97.49 253.47,97.18 254.76,96.87 256.05,96.57 257.33,96.28 258.62,95.99 259.91,95.71 261.2,95.43 262.48,95.16 576,95.29 576,99.26 575.38,99.32 574.09,99.44 572.8,99.56 571.51,99.68 570.22,99.8 568.94,99.93 567.65,100.05 566.36,100.18 565.07,100.31 563.79,100.43 562.5,100.56 561.21,100.69 559.92,100.82 558.64,100.95 557.35,101.08 556.06,101.22 554.77,101.35 553.49,101.49 552.2,101.62 550.91,101.76 549.62,101.9 548.34,102.04 547.05,102.18 545.76,102.32 544.47,102.46 543.18,102.6 541.9,102.75 540.61,102.89 539.32,103.04 538.03,103.19 536.75,103.33 535.46,103.48 534.17,103.63 532.88,103.79 531.6,103.94 530.31,104.09 529.02,104.25 527.73,104.4 526.45,104.56 525.16,104.72 523.87,104.88 522.58,105.04 521.3,105.2 520.01,105.36 518.72,105.52 517.43,105.69 516.14,105.85 514.86,106.02 513.57,106.19 512.28,106.36 510.99,106.53 509.71,106.7 508.42,106.88 507.13,107.05 505.84,107.23 504.56,107.4 503.27,107.58 501.98,107.76 500.69,107.94 499.41,108.12 498.12,108.31 496.83,108.49 495.54,108.68 494.26,108.87 492.97,109.05 491.68,109.24 490.39,109.44 489.1,109.63 487.82,109.82 486.53,110.02 485.24,110.22 483.95,110.41 482.67,110.61 481.38,110.82 480.09,111.02 478.8,111.22 477.52,111.43 476.23,111.63 474.94,111.84 473.65,112.05 472.37,112.26 471.08,112.48 469.79,112.69 468.5,112.91 467.22,113.13 465.93,113.35 464.64,113.57 463.35,113.79 462.06,114.01 460.78,114.24 459.49,114.46 458.2,114.69 456.91,114.92 455.63,115.16 454.34,115.39 453.05,115.62 451.76,115.86 450.48,116.1 449.19,116.34 447.9,116.58 446.61,116.83 445.33,117.07 444.04,117.32 442.75,117.57 441.46,117.82 440.18,118.07 438.89,118.33 437.6,118.58 436.31,118.84 435.02,119.1 433.74,119.36 432.45,119.63 431.16,119.89 429.87,120.16 428.59,120.43 427.3,120.7 426.01,120.97 424.72,121.25 423.44,121.53 422.15,121.81 420.86,122.09 419.57,122.37 418.29,122.66 417,122.94 415.71,123.23 414.42,123.52 413.14,123.82 411.85,124.11 410.56,124.41 409.27,124.71 407.98,125.01 406.7,125.32 405.41,125.62 404.12,125.93 402.83,126.24 401.55,126.55 400.26,126.87 398.97,127.19 397.68,127.5 396.4,127.83 395.11,128.15 393.82,128.48 392.53,128.81 391.25,129.14 389.96,129.47 388.67,129.81 387.38,130.14 386.1,130.49 384.81,130.83 383.52,131.17 382.23,131.52 380.94,131.87 379.66,132.23 378.37,132.58 377.08,132.94 375.79,133.3 374.51,133.66 373.22,134.03 371.93,134.4 370.64,134.77 369.36,135.14 368.07,135.52 366.78,135.9 365.49,136.28 364.21,136.66 362.92,137.05 361.63,137.44 360.34,137.83 359.06,138.23 357.77,138.63 356.48,139.03 355.19,139.43 353.9,139.84 352.62,140.25 351.33,140.66 350.04,141.08 348.75,141.5 347.47,141.92 346.18,142.34 344.89,142.77 343.6,143.2 342.32,143.64 341.03,144.07 339.74,144.51 338.45,144.96 337.17,145.4 335.88,145.85 334.59,146.31 333.3,146.76 332.02,147.22 330.73,147.68 329.44,148.15 328.15,148.62 326.86,149.09 325.58,149.57 324.29,150.05 323,150.53 321.71,151.02 320.43,151.51 319.14,152 317.85,152.5 316.56,153 315.28,153.5 313.99,154.01 312.7,154.52 311.41,155.03 310.13,155.55 308.84,156.07 307.55,156.6 306.26,157.13 304.98,157.66 303.69,158.2 302.4,158.74 301.11,159.29 299.82,159.83 298.54,160.39 297.25,160.94 295.96,161.5 294.67,162.07 293.39,162.64 292.1,163.21 290.81,163.79 289.52,164.37 288.24,164.95 286.95,165.54 285.66,166.13 284.37,166.73 283.09,167.33 281.8,167.94 280.51,168.55 279.22,169.17 277.94,169.79 276.65,170.41 275.36,171.04 274.07,171.67 272.78,172.31 271.5,172.95 270.21,173.6 268.92,174.25 267.63,174.9 266.35,175.56 265.06,176.23 263.77,176.9 262.48,177.57 261.2,178.25 259.91,178.93 258.62,179.62 257.33,180.32 256.05,181.02 254.76,181.72 253.47,182.43 252.18,183.14 250.9,183.86 249.61,184.59 248.32,185.32 247.03,186.05 245.74,186.79 244.46,187.54 243.17,188.29 241.88,189.04 240.59,189.8 239.31,190.57 238.02,191.34 236.73,192.12 235.44,192.9 234.16,193.69 232.87,194.49 231.58,195.29 230.29,196.09 229.01,196.9 227.72,197.72 226.43,198.54 225.14,199.37 223.86,200.21 222.57,201.05 221.28,201.9 219.99,202.75 218.7,203.61 217.42,204.47 216.13,205.34 214.84,206.22 213.55,207.11 212.27,208 210.98,208.89 209.69,209.8 208.4,210.7 207.12,211.62 205.83,212.54 204.54,213.47 203.25,214.41 201.97,215.35 200.68,216.3 199.39,217.26 198.1,218.22 196.82,219.19 195.53,220.16 194.24,221.15 192.95,222.14 191.66,223.14 190.38,224.14 189.09,225.15 187.8,226.17 186.51,227.2 185.23,228.23 183.94,229.27 182.65,230.32 181.36,231.38 180.08,232.44 178.79,233.51 177.5,234.59 176.21,235.68 174.93,236.77 173.64,237.87 172.35,238.98 171.06,240.1 169.78,241.22 168.49,242.36 167.2,243.5 165.91,244.65 164.62,245.81 163.34,246.98 162.05,248.15 160.76,249.33 159.47,250.53 158.19,251.73 156.9,252.93 155.61,254.15 154.32,255.38 153.04,256.61 151.75,257.86 150.46,259.11 149.17,260.37 147.89,261.64 146.6,262.92 145.31,264.21 144.02,265.51 142.74,266.81 141.45,268.13 140.16,269.46 138.87,270.79 137.58,272.14 136.3,273.49 135.01,274.86 133.72,276.23 132.43,277.61 131.15,279.01 129.86,280.41 128.57,281.82 127.28,283.25 126,284.68 124.71,286.13 123.42,287.58 122.13,289.04 120.85,290.52 119.56,292.01 118.27,293.5 116.98,295.01 115.7,296.53 114.41,298.06 113.12,299.6 111.83,301.15 110.54,302.71 109.26,304.28 107.97,305.86 106.68,307.46 105.39,309.07 104.11,310.68 102.82,312.31 101.53,313.96 100.24,315.61 98.96,317.27 97.67,318.95 96.38,320.64 95.09,322.34 93.81,324.05 92.52,325.78 91.23,327.52 89.94,329.27 88.66,331.03 87.37,332.8 86.08,334.59 84.79,336.39 83.5,338.2 82.22,340.03 80.93,341.87 79.64,343.72 78.35,345.59 77.07,347.47 78.35,341.91 79.64,336.49 80.93,331.18 " />
  <polygon
     id="polygon46"
     style="fill:#3bb370;fill-opacity:0.2;stroke:none;stroke-width:0.75;stroke-linecap:round;stroke-linejoin:round;stroke-miterlimit:10"
     points="82.22,327.3 83.5,322.47 84.79,317.7 86.08,313.02 87.37,308.41 88.66,303.87 89.94,299.4 91.23,295 92.52,290.66 93.81,286.4 95.09,282.2 96.38,278.06 97.67,273.99 98.96,269.99 100.24,266.04 101.53,262.16 102.82,258.34 104.11,254.58 105.39,250.87 106.68,247.23 107.97,243.64 109.26,240.11 110.54,236.63 111.83,233.21 113.12,229.84 114.41,226.53 115.7,223.27 116.98,220.06 118.27,216.89 119.56,213.78 120.85,210.72 122.13,207.7 123.42,204.73 124.71,201.81 126,198.93 127.28,196.1 128.57,193.32 129.86,190.57 131.15,187.87 132.43,185.21 133.72,182.59 135.01,180.02 136.3,177.48 137.58,174.98 138.87,172.53 140.16,170.11 141.45,167.73 142.74,165.38 144.02,163.08 145.31,160.81 146.6,158.57 147.89,156.37 149.17,154.21 150.46,152.08 151.75,149.98 153.04,147.91 154.32,145.88 155.61,143.88 156.9,141.91 158.19,139.97 159.47,138.06 160.76,136.18 162.05,134.33 163.34,132.5 164.62,130.71 165.91,128.95 167.2,127.21 168.49,125.5 169.78,123.82 171.06,122.16 172.35,120.53 173.64,118.92 174.93,117.34 176.21,115.79 177.5,114.26 178.79,112.75 180.08,111.27 181.36,109.81 182.65,108.37 183.94,106.96 185.23,105.56 186.51,104.19 187.8,102.84 189.09,101.52 190.38,100.21 191.66,98.92 192.95,97.65 194.24,96.41 195.53,95.18 576,95.14 576,111.86 575.38,112.01 574.09,112.31 572.8,112.62 571.51,112.92 570.22,113.23 568.94,113.54 567.65,113.85 566.36,114.16 565.07,114.48 563.79,114.79 562.5,115.1 561.21,115.42 559.92,115.73 558.64,116.05 557.35,116.37 556.06,116.69 554.77,117.01 553.49,117.33 552.2,117.65 550.91,117.98 549.62,118.3 548.34,118.63 547.05,118.96 545.76,119.28 544.47,119.61 543.18,119.94 541.9,120.27 540.61,120.6 539.32,120.94 538.03,121.27 536.75,121.61 535.46,121.94 534.17,122.28 532.88,122.62 531.6,122.96 530.31,123.3 529.02,123.64 527.73,123.99 526.45,124.33 525.16,124.67 523.87,125.02 522.58,125.37 521.3,125.72 520.01,126.07 518.72,126.42 517.43,126.77 516.14,127.12 514.86,127.48 513.57,127.83 512.28,128.19 510.99,128.55 509.71,128.91 508.42,129.27 507.13,129.63 505.84,129.99 504.56,130.35 503.27,130.72 501.98,131.08 500.69,131.45 499.41,131.82 498.12,132.19 496.83,132.56 495.54,132.93 494.26,133.3 492.97,133.68 491.68,134.05 490.39,134.43 489.1,134.81 487.82,135.19 486.53,135.57 485.24,135.95 483.95,136.33 482.67,136.72 481.38,137.1 480.09,137.49 478.8,137.88 477.52,138.27 476.23,138.66 474.94,139.05 473.65,139.44 472.37,139.84 471.08,140.23 469.79,140.63 468.5,141.03 467.22,141.43 465.93,141.83 464.64,142.23 463.35,142.63 462.06,143.04 460.78,143.44 459.49,143.85 458.2,144.26 456.91,144.67 455.63,145.08 454.34,145.49 453.05,145.91 451.76,146.32 450.48,146.74 449.19,147.16 447.9,147.57 446.61,148 445.33,148.42 444.04,148.84 442.75,149.27 441.46,149.69 440.18,150.12 438.89,150.55 437.6,150.98 436.31,151.41 435.02,151.84 433.74,152.28 432.45,152.71 431.16,153.15 429.87,153.59 428.59,154.03 427.3,154.47 426.01,154.91 424.72,155.36 423.44,155.8 422.15,156.25 420.86,156.7 419.57,157.15 418.29,157.6 417,158.06 415.71,158.51 414.42,158.97 413.14,159.42 411.85,159.88 410.56,160.34 409.27,160.81 407.98,161.27 406.7,161.73 405.41,162.2 404.12,162.67 402.83,163.14 401.55,163.61 400.26,164.08 398.97,164.56 397.68,165.03 396.4,165.51 395.11,165.99 393.82,166.47 392.53,166.95 391.25,167.43 389.96,167.92 388.67,168.41 387.38,168.89 386.1,169.38 384.81,169.88 383.52,170.37 382.23,170.86 380.94,171.36 379.66,171.86 378.37,172.36 377.08,172.86 375.79,173.36 374.51,173.86 373.22,174.37 371.93,174.88 370.64,175.39 369.36,175.9 368.07,176.41 366.78,176.92 365.49,177.44 364.21,177.96 362.92,178.48 361.63,179 360.34,179.52 359.06,180.05 357.77,180.57 356.48,181.1 355.19,181.63 353.9,182.16 352.62,182.69 351.33,183.23 350.04,183.76 348.75,184.3 347.47,184.84 346.18,185.38 344.89,185.93 343.6,186.47 342.32,187.02 341.03,187.57 339.74,188.12 338.45,188.67 337.17,189.22 335.88,189.78 334.59,190.34 333.3,190.9 332.02,191.46 330.73,192.02 329.44,192.58 328.15,193.15 326.86,193.72 325.58,194.29 324.29,194.86 323,195.44 321.71,196.01 320.43,196.59 319.14,197.17 317.85,197.75 316.56,198.33 315.28,198.92 313.99,199.51 312.7,200.1 311.41,200.69 310.13,201.28 308.84,201.87 307.55,202.47 306.26,203.07 304.98,203.67 303.69,204.27 302.4,204.88 301.11,205.48 299.82,206.09 298.54,206.7 297.25,207.32 295.96,207.93 294.67,208.55 293.39,209.17 292.1,209.79 290.81,210.41 289.52,211.03 288.24,211.66 286.95,212.29 285.66,212.92 284.37,213.55 283.09,214.19 281.8,214.82 280.51,215.46 279.22,216.1 277.94,216.75 276.65,217.39 275.36,218.04 274.07,218.69 272.78,219.34 271.5,219.99 270.21,220.65 268.92,221.31 267.63,221.96 266.35,222.63 265.06,223.29 263.77,223.96 262.48,224.63 261.2,225.3 259.91,225.97 258.62,226.64 257.33,227.32 256.05,228 254.76,228.68 253.47,229.37 252.18,230.05 250.9,230.74 249.61,231.43 248.32,232.12 247.03,232.82 245.74,233.52 244.46,234.21 243.17,234.92 241.88,235.62 240.59,236.33 239.31,237.04 238.02,237.75 236.73,238.46 235.44,239.18 234.16,239.89 232.87,240.61 231.58,241.34 230.29,242.06 229.01,242.79 227.72,243.52 226.43,244.25 225.14,244.98 223.86,245.72 222.57,246.46 221.28,247.2 219.99,247.94 218.7,248.69 217.42,249.44 216.13,250.19 214.84,250.94 213.55,251.7 212.27,252.46 210.98,253.22 209.69,253.98 208.4,254.75 207.12,255.52 205.83,256.29 204.54,257.06 203.25,257.84 201.97,258.62 200.68,259.4 199.39,260.18 198.1,260.97 196.82,261.75 195.53,262.54 194.24,263.34 192.95,264.13 191.66,264.93 190.38,265.74 189.09,266.54 187.8,267.35 186.51,268.15 185.23,268.97 183.94,269.78 182.65,270.6 181.36,271.42 180.08,272.24 178.79,273.07 177.5,273.89 176.21,274.72 174.93,275.56 173.64,276.39 172.35,277.23 171.06,278.07 169.78,278.92 168.49,279.76 167.2,280.61 165.91,281.47 164.62,282.32 163.34,283.18 162.05,284.04 160.76,284.9 159.47,285.77 158.19,286.64 156.9,287.51 155.61,288.38 154.32,289.26 153.04,290.14 151.75,291.02 150.46,291.91 149.17,292.8 147.89,293.69 146.6,294.59 145.31,295.48 144.02,296.38 142.74,297.29 141.45,298.19 140.16,299.1 138.87,300.02 137.58,300.93 136.3,301.85 135.01,302.77 133.72,303.69 132.43,304.62 131.15,305.55 129.86,306.48 128.57,307.42 127.28,308.36 126,309.3 124.71,310.25 123.42,311.2 122.13,312.15 120.85,313.1 119.56,314.06 118.27,315.02 116.98,315.98 115.7,316.95 114.41,317.92 113.12,318.89 111.83,319.87 110.54,320.85 109.26,321.83 107.97,322.82 106.68,323.81 105.39,324.8 104.11,325.8 102.82,326.8 101.53,327.8 100.24,328.8 98.96,329.81 97.67,330.82 96.38,331.84 95.09,332.86 93.81,333.88 92.52,334.9 91.23,335.93 89.94,336.96 88.66,338 87.37,339.04 86.08,340.08 84.79,341.12 83.5,342.17 82.22,343.22 80.93,344.28 79.64,345.34 78.35,346.4 77.07,347.47 78.35,342.3 79.64,337.22 80.93,332.22 " />
  <defs
     id="defs11">
    <clipPath
       id="cpMC4wMHw1NzYuMDB8MC4wMHw0MzIuMDA=">
      <rect
         x="0.00"
         y="0.00"
         width="576.00"
         height="432.00"
         id="rect8" />
    </clipPath>
  </defs>
  <g
     clip-path="url(#cpMC4wMHw1NzYuMDB8MC4wMHw0MzIuMDA=)"
     id="g13" />
  <defs
     id="defs18">
    <clipPath
       id="cpNTkuMDR8NTQ1Ljc2fDU5LjA0fDM1OC41Ng==">
      <rect
         x="59.04"
         y="59.04"
         width="486.72"
         height="299.52"
         id="rect15" />
    </clipPath>
  </defs>
  <g
     clip-path="url(#cpNTkuMDR8NTQ1Ljc2fDU5LjA0fDM1OC41Ng==)"
     id="g20" />
  <polygon
     id="polygon30"
     style="fill:#0a4d80;fill-opacity:0.1;stroke:none;stroke-width:0.75;stroke-linecap:round;stroke-linejoin:round;stroke-miterlimit:10"
     points="82.22,331.93 83.5,328.19 84.79,324.51 86.08,320.89 87.37,317.32 88.66,313.81 89.94,310.35 91.23,306.94 92.52,303.59 93.81,300.28 95.09,297.02 96.38,293.81 97.67,290.65 98.96,287.54 100.24,284.47 101.53,281.45 102.82,278.47 104.11,275.54 105.39,272.66 106.68,269.82 107.97,267.02 109.26,264.26 110.54,261.55 111.83,258.87 113.12,256.24 114.41,253.65 115.7,251.09 116.98,248.58 118.27,246.1 119.56,243.66 120.85,241.26 122.13,238.89 123.42,236.56 124.71,234.26 126,232 127.28,229.77 128.57,227.58 129.86,225.42 131.15,223.29 132.43,221.19 133.72,219.13 135.01,217.1 136.3,215.09 137.58,213.12 138.87,211.18 140.16,209.26 141.45,207.38 142.74,205.52 144.02,203.7 145.31,201.9 146.6,200.12 147.89,198.38 149.17,196.66 150.46,194.97 151.75,193.3 153.04,191.65 154.32,190.04 155.61,188.44 156.9,186.87 158.19,185.33 159.47,183.8 160.76,182.3 162.05,180.82 163.34,179.37 164.62,177.94 165.91,176.52 167.2,175.13 168.49,173.76 169.78,172.42 171.06,171.09 172.35,169.78 173.64,168.49 174.93,167.22 176.21,165.97 177.5,164.74 178.79,163.53 180.08,162.34 181.36,161.16 182.65,160.01 183.94,158.86 185.23,157.74 186.51,156.64 187.8,155.55 189.09,154.47 190.38,153.42 191.66,152.37 192.95,151.35 194.24,150.34 195.53,149.34 196.82,148.36 198.1,147.4 199.39,146.45 200.68,145.51 201.97,144.59 203.25,143.68 204.54,142.79 205.83,141.91 207.12,141.04 208.4,140.18 209.69,139.34 210.98,138.51 212.27,137.7 213.55,136.9 214.84,136.1 216.13,135.32 217.42,134.56 218.7,133.8 219.99,133.06 221.28,132.32 222.57,131.6 223.86,130.89 225.14,130.19 226.43,129.5 227.72,128.82 229.01,128.15 230.29,127.49 231.58,126.84 232.87,126.2 234.16,125.57 235.44,124.94 236.73,124.33 238.02,123.73 239.31,123.14 240.59,122.55 241.88,121.98 243.17,121.41 244.46,120.85 245.74,120.3 247.03,119.76 248.32,119.23 249.61,118.71 250.9,118.19 252.18,117.68 253.47,117.18 254.76,116.68 256.05,116.2 257.33,115.72 258.62,115.25 259.91,114.78 261.2,114.32 262.48,113.87 263.77,113.43 265.06,112.99 266.35,112.56 267.63,112.14 268.92,111.72 270.21,111.31 271.5,110.9 272.78,110.5 274.07,110.11 275.36,109.72 276.65,109.34 277.94,108.96 279.22,108.59 280.51,108.23 281.8,107.87 283.09,107.52 284.37,107.17 285.66,106.83 286.95,106.49 288.24,106.15 289.52,105.83 290.81,105.5 292.1,105.19 293.39,104.87 294.67,104.57 295.96,104.26 297.25,103.96 298.54,103.67 299.82,103.38 301.11,103.09 302.4,102.81 303.69,102.53 304.98,102.26 306.26,101.99 307.55,101.73 308.84,101.47 310.13,101.21 311.41,100.96 312.7,100.71 313.99,100.46 315.28,100.22 316.56,99.98 317.85,99.75 319.14,99.52 320.43,99.29 321.71,99.06 323,98.84 324.29,98.63 325.58,98.41 326.86,98.2 328.15,97.99 329.44,97.79 330.73,97.59 332.02,97.39 333.3,97.2 334.59,97 335.88,96.81 337.17,96.63 338.45,96.44 339.74,96.26 341.03,96.08 342.32,95.91 343.6,95.73 344.89,95.56 346.18,95.4 347.47,95.23 563.79,95.3 562.5,95.39 561.21,95.48 559.92,95.58 558.64,95.67 557.35,95.76 556.06,95.86 554.77,95.96 553.49,96.05 552.2,96.15 550.91,96.25 549.62,96.35 548.34,96.45 547.05,96.55 545.76,96.66 544.47,96.76 543.18,96.86 541.9,96.97 540.61,97.08 539.32,97.18 538.03,97.29 536.75,97.4 535.46,97.51 534.17,97.62 532.88,97.73 531.6,97.84 530.31,97.96 529.02,98.07 527.73,98.19 526.45,98.3 525.16,98.42 523.87,98.54 522.58,98.66 521.3,98.78 520.01,98.9 518.72,99.02 517.43,99.15 516.14,99.27 514.86,99.4 513.57,99.52 512.28,99.65 510.99,99.78 509.71,99.91 508.42,100.04 507.13,100.17 505.84,100.3 504.56,100.44 503.27,100.57 501.98,100.71 500.69,100.85 499.41,100.99 498.12,101.13 496.83,101.27 495.54,101.41 494.26,101.56 492.97,101.7 491.68,101.85 490.39,101.99 489.1,102.14 487.82,102.29 486.53,102.44 485.24,102.6 483.95,102.75 482.67,102.9 481.38,103.06 480.09,103.22 478.8,103.38 477.52,103.54 476.23,103.7 474.94,103.86 473.65,104.03 472.37,104.19 471.08,104.36 469.79,104.53 468.5,104.7 467.22,104.87 465.93,105.04 464.64,105.22 463.35,105.39 462.06,105.57 460.78,105.75 459.49,105.93 458.2,106.11 456.91,106.3 455.63,106.48 454.34,106.67 453.05,106.86 451.76,107.04 450.48,107.24 449.19,107.43 447.9,107.62 446.61,107.82 445.33,108.02 444.04,108.22 442.75,108.42 441.46,108.62 440.18,108.83 438.89,109.03 437.6,109.24 436.31,109.45 435.02,109.66 433.74,109.88 432.45,110.09 431.16,110.31 429.87,110.53 428.59,110.75 427.3,110.97 426.01,111.2 424.72,111.42 423.44,111.65 422.15,111.88 420.86,112.11 419.57,112.35 418.29,112.59 417,112.82 415.71,113.06 414.42,113.31 413.14,113.55 411.85,113.8 410.56,114.05 409.27,114.3 407.98,114.55 406.7,114.8 405.41,115.06 404.12,115.32 402.83,115.58 401.55,115.85 400.26,116.11 398.97,116.38 397.68,116.65 396.4,116.92 395.11,117.2 393.82,117.48 392.53,117.76 391.25,118.04 389.96,118.32 388.67,118.61 387.38,118.9 386.1,119.19 384.81,119.48 383.52,119.78 382.23,120.08 380.94,120.38 379.66,120.69 378.37,120.99 377.08,121.3 375.79,121.61 374.51,121.93 373.22,122.25 371.93,122.57 370.64,122.89 369.36,123.22 368.07,123.54 366.78,123.87 365.49,124.21 364.21,124.55 362.92,124.89 361.63,125.23 360.34,125.57 359.06,125.92 357.77,126.27 356.48,126.63 355.19,126.98 353.9,127.34 352.62,127.71 351.33,128.07 350.04,128.44 348.75,128.82 347.47,129.19 346.18,129.57 344.89,129.95 343.6,130.34 342.32,130.73 341.03,131.12 339.74,131.51 338.45,131.91 337.17,132.32 335.88,132.72 334.59,133.13 333.3,133.54 332.02,133.96 330.73,134.38 329.44,134.8 328.15,135.23 326.86,135.66 325.58,136.09 324.29,136.53 323,136.97 321.71,137.41 320.43,137.86 319.14,138.32 317.85,138.77 316.56,139.23 315.28,139.7 313.99,140.16 312.7,140.64 311.41,141.11 310.13,141.59 308.84,142.08 307.55,142.56 306.26,143.06 304.98,143.55 303.69,144.05 302.4,144.56 301.11,145.07 299.82,145.58 298.54,146.1 297.25,146.62 295.96,147.15 294.67,147.68 293.39,148.21 292.1,148.75 290.81,149.3 289.52,149.85 288.24,150.4 286.95,150.96 285.66,151.52 284.37,152.09 283.09,152.66 281.8,153.24 280.51,153.82 279.22,154.41 277.94,155 276.65,155.6 275.36,156.21 274.07,156.81 272.78,157.43 271.5,158.04 270.21,158.67 268.92,159.3 267.63,159.93 266.35,160.57 265.06,161.21 263.77,161.86 262.48,162.52 261.2,163.18 259.91,163.85 258.62,164.52 257.33,165.2 256.05,165.88 254.76,166.57 253.47,167.27 252.18,167.97 250.9,168.68 249.61,169.39 248.32,170.11 247.03,170.84 245.74,171.57 244.46,172.31 243.17,173.05 241.88,173.8 240.59,174.56 239.31,175.32 238.02,176.09 236.73,176.87 235.44,177.65 234.16,178.44 232.87,179.23 231.58,180.04 230.29,180.85 229.01,181.66 227.72,182.49 226.43,183.32 225.14,184.16 223.86,185 222.57,185.85 221.28,186.71 219.99,187.58 218.7,188.45 217.42,189.33 216.13,190.22 214.84,191.12 213.55,192.02 212.27,192.93 210.98,193.85 209.69,194.78 208.4,195.71 207.12,196.65 205.83,197.6 204.54,198.56 203.25,199.53 201.97,200.5 200.68,201.49 199.39,202.48 198.1,203.48 196.82,204.48 195.53,205.5 194.24,206.53 192.95,207.56 191.66,208.6 190.38,209.66 189.09,210.72 187.8,211.79 186.51,212.86 185.23,213.95 183.94,215.05 182.65,216.16 181.36,217.27 180.08,218.4 178.79,219.53 177.5,220.67 176.21,221.83 174.93,222.99 173.64,224.17 172.35,225.35 171.06,226.54 169.78,227.75 168.49,228.96 167.2,230.18 165.91,231.42 164.62,232.66 163.34,233.92 162.05,235.18 160.76,236.46 159.47,237.75 158.19,239.05 156.9,240.36 155.61,241.68 154.32,243.01 153.04,244.35 151.75,245.71 150.46,247.07 149.17,248.45 147.89,249.84 146.6,251.24 145.31,252.65 144.02,254.08 142.74,255.51 141.45,256.96 140.16,258.42 138.87,259.9 137.58,261.38 136.3,262.88 135.01,264.39 133.72,265.92 132.43,267.46 131.15,269.01 129.86,270.57 128.57,272.15 127.28,273.74 126,275.34 124.71,276.96 123.42,278.59 122.13,280.23 120.85,281.89 119.56,283.56 118.27,285.25 116.98,286.95 115.7,288.66 114.41,290.39 113.12,292.14 111.83,293.9 110.54,295.67 109.26,297.46 107.97,299.27 106.68,301.09 105.39,302.92 104.11,304.77 102.82,306.64 101.53,308.52 100.24,310.42 98.96,312.33 97.67,314.26 96.38,316.21 95.09,318.17 93.81,320.15 92.52,322.15 91.23,324.16 89.94,326.19 88.66,328.24 87.37,330.3 86.08,332.39 84.79,334.49 83.5,336.6 82.22,338.74 80.93,340.89 79.64,343.07 78.35,345.26 77.07,347.47 78.35,343.49 79.64,339.57 80.93,335.72 " />
  <polyline
     id="polyline32"
     style="fill:none;stroke:#0a4d80;stroke-width:0.75;stroke-linecap:round;stroke-linejoin:round;stroke-miterlimit:10;stroke-dasharray:6,6;stroke-dashoffset:0"
     points="77.07,347.47 78.35,344.37 79.64,341.31 80.93,338.29 82.22,335.30 83.50,332.35 84.79,329.44 86.08,326.56 87.37,323.71 88.66,320.90 89.94,318.12 91.23,315.37 92.52,312.66 93.81,309.97 95.09,307.32 96.38,304.70 97.67,302.11 98.96,299.55 100.24,297.02 101.53,294.52 102.82,292.05 104.11,289.61 105.39,287.19 106.68,284.81 107.97,282.45 109.26,280.13 110.54,277.82 111.83,275.55 113.12,273.30 114.41,271.08 115.70,268.89 116.98,266.72 118.27,264.57 119.56,262.46 120.85,260.36 122.13,258.29 123.42,256.25 124.71,254.23 126.00,252.23 127.28,250.26 128.57,248.31 129.86,246.38 131.15,244.48 132.43,242.60 133.72,240.74 135.01,238.90 136.30,237.08 137.58,235.29 138.87,233.51 140.16,231.76 141.45,230.03 142.74,228.31 144.02,226.62 145.31,224.95 146.60,223.30 147.89,221.67 149.17,220.05 150.46,218.46 151.75,216.88 153.04,215.32 154.32,213.78 155.61,212.26 156.90,210.76 158.19,209.27 159.47,207.81 160.76,206.36 162.05,204.92 163.34,203.50 164.62,202.10 165.91,200.72 167.20,199.35 168.49,198.00 169.78,196.67 171.06,195.35 172.35,194.04 173.64,192.75 174.93,191.48 176.21,190.22 177.50,188.98 178.79,187.75 180.08,186.53 181.36,185.33 182.65,184.15 183.94,182.97 185.23,181.82 186.51,180.67 187.80,179.54 189.09,178.42 190.38,177.32 191.66,176.22 192.95,175.14 194.24,174.08 195.53,173.02 196.82,171.98 198.10,170.95 199.39,169.93 200.68,168.93 201.97,167.94 203.25,166.95 204.54,165.98 205.83,165.02 207.12,164.08 208.40,163.14 209.69,162.21 210.98,161.30 212.27,160.40 213.55,159.50 214.84,158.62 216.13,157.75 217.42,156.89 218.70,156.04 219.99,155.19 221.28,154.36 222.57,153.54 223.86,152.73 225.14,151.92 226.43,151.13 227.72,150.35 229.01,149.57 230.29,148.81 231.58,148.05 232.87,147.30 234.16,146.56 235.44,145.83 236.73,145.11 238.02,144.39 239.31,143.69 240.59,142.99 241.88,142.30 243.17,141.62 244.46,140.95 245.74,140.29 247.03,139.63 248.32,138.98 249.61,138.34 250.90,137.71 252.18,137.08 253.47,136.46 254.76,135.85 256.05,135.25 257.33,134.65 258.62,134.06 259.91,133.47 261.20,132.90 262.48,132.33 263.77,131.77 265.06,131.21 266.35,130.66 267.63,130.12 268.92,129.58 270.21,129.05 271.50,128.52 272.78,128.00 274.07,127.49 275.36,126.99 276.65,126.49 277.94,125.99 279.22,125.50 280.51,125.02 281.80,124.54 283.09,124.07 284.37,123.61 285.66,123.15 286.95,122.69 288.24,122.24 289.52,121.80 290.81,121.36 292.10,120.92 293.39,120.49 294.67,120.07 295.96,119.65 297.25,119.24 298.54,118.83 299.82,118.42 301.11,118.02 302.40,117.63 303.69,117.24 304.98,116.85 306.26,116.47 307.55,116.10 308.84,115.72 310.13,115.36 311.41,114.99 312.70,114.63 313.99,114.28 315.28,113.93 316.56,113.58 317.85,113.24 319.14,112.90 320.43,112.57 321.71,112.23 323.00,111.91 324.29,111.58 325.58,111.27 326.86,110.95 328.15,110.64 329.44,110.33 330.73,110.03 332.02,109.73 333.30,109.43 334.59,109.13 335.88,108.84 337.17,108.56 338.45,108.27 339.74,107.99 341.03,107.72 342.32,107.44 343.60,107.17 344.89,106.91 346.18,106.64 347.47,106.38 348.75,106.12 350.04,105.87 351.33,105.62 352.62,105.37 353.90,105.12 355.19,104.88 356.48,104.64 357.77,104.40 359.06,104.17 360.34,103.93 361.63,103.70 362.92,103.48 364.21,103.25 365.49,103.03 366.78,102.81 368.07,102.60 369.36,102.39 370.64,102.17 371.93,101.97 373.22,101.76 374.51,101.56 375.79,101.36 377.08,101.16 378.37,100.96 379.66,100.77 380.94,100.57 382.23,100.38 383.52,100.20 384.81,100.01 386.10,99.83 387.38,99.65 388.67,99.47 389.96,99.29 391.25,99.12 392.53,98.95 393.82,98.78 395.11,98.61 396.40,98.44 397.68,98.28 398.97,98.11 400.26,97.95 401.55,97.79 402.83,97.64 404.12,97.48 405.41,97.33 406.70,97.18 407.98,97.03 409.27,96.88 410.56,96.73 411.85,96.59 413.14,96.45 414.42,96.30 415.71,96.17 417.00,96.03 418.29,95.89 419.57,95.76 420.86,95.62 422.15,95.49 423.44,95.36 424.72,95.23 " />
  <polyline
     id="polyline36"
     style="fill:none;stroke:#0a4d80;stroke-width:0.75;stroke-linecap:round;stroke-linejoin:round;stroke-miterlimit:10"
     points="77.07,347.47 78.35,344.12 79.64,340.83 80.93,337.57 82.22,334.35 83.50,331.18 84.79,328.05 86.08,324.95 87.37,321.90 88.66,318.89 89.94,315.91 91.23,312.97 92.52,310.06 93.81,307.20 95.09,304.36 96.38,301.57 97.67,298.81 98.96,296.08 100.24,293.39 101.53,290.73 102.82,288.11 104.11,285.51 105.39,282.96 106.68,280.43 107.97,277.93 109.26,275.47 110.54,273.04 111.83,270.64 113.12,268.27 114.41,265.93 115.70,263.61 116.98,261.33 118.27,259.08 119.56,256.85 120.85,254.66 122.13,252.49 123.42,250.34 124.71,248.23 126.00,246.14 127.28,244.08 128.57,242.04 129.86,240.03 131.15,238.04 132.43,236.08 133.72,234.15 135.01,232.24 136.30,230.35 137.58,228.48 138.87,226.64 140.16,224.83 141.45,223.03 142.74,221.26 144.02,219.51 145.31,217.79 146.60,216.08 147.89,214.40 149.17,212.74 150.46,211.09 151.75,209.47 153.04,207.87 154.32,206.29 155.61,204.73 156.90,203.19 158.19,201.67 159.47,200.17 160.76,198.68 162.05,197.22 163.34,195.77 164.62,194.34 165.91,192.93 167.20,191.54 168.49,190.17 169.78,188.81 171.06,187.47 172.35,186.15 173.64,184.84 174.93,183.55 176.21,182.28 177.50,181.02 178.79,179.78 180.08,178.55 181.36,177.34 182.65,176.14 183.94,174.96 185.23,173.80 186.51,172.65 187.80,171.51 189.09,170.39 190.38,169.28 191.66,168.19 192.95,167.11 194.24,166.04 195.53,164.99 196.82,163.94 198.10,162.92 199.39,161.90 200.68,160.90 201.97,159.91 203.25,158.94 204.54,157.97 205.83,157.02 207.12,156.08 208.40,155.15 209.69,154.24 210.98,153.33 212.27,152.44 213.55,151.56 214.84,150.69 216.13,149.83 217.42,148.98 218.70,148.14 219.99,147.31 221.28,146.50 222.57,145.69 223.86,144.89 225.14,144.10 226.43,143.33 227.72,142.56 229.01,141.80 230.29,141.05 231.58,140.32 232.87,139.59 234.16,138.87 235.44,138.16 236.73,137.45 238.02,136.76 239.31,136.08 240.59,135.40 241.88,134.73 243.17,134.07 244.46,133.42 245.74,132.78 247.03,132.15 248.32,131.52 249.61,130.90 250.90,130.29 252.18,129.69 253.47,129.09 254.76,128.51 256.05,127.92 257.33,127.35 258.62,126.79 259.91,126.23 261.20,125.67 262.48,125.13 263.77,124.59 265.06,124.06 266.35,123.54 267.63,123.02 268.92,122.51 270.21,122.00 271.50,121.50 272.78,121.01 274.07,120.52 275.36,120.04 276.65,119.57 277.94,119.10 279.22,118.64 280.51,118.19 281.80,117.73 283.09,117.29 284.37,116.85 285.66,116.42 286.95,115.99 288.24,115.57 289.52,115.15 290.81,114.74 292.10,114.33 293.39,113.93 294.67,113.53 295.96,113.14 297.25,112.75 298.54,112.37 299.82,111.99 301.11,111.62 302.40,111.25 303.69,110.89 304.98,110.53 306.26,110.18 307.55,109.83 308.84,109.48 310.13,109.14 311.41,108.80 312.70,108.47 313.99,108.14 315.28,107.82 316.56,107.50 317.85,107.19 319.14,106.87 320.43,106.57 321.71,106.26 323.00,105.96 324.29,105.66 325.58,105.37 326.86,105.08 328.15,104.80 329.44,104.52 330.73,104.24 332.02,103.96 333.30,103.69 334.59,103.42 335.88,103.16 337.17,102.90 338.45,102.64 339.74,102.39 341.03,102.13 342.32,101.89 343.60,101.64 344.89,101.40 346.18,101.16 347.47,100.92 348.75,100.69 350.04,100.46 351.33,100.23 352.62,100.01 353.90,99.79 355.19,99.57 356.48,99.35 357.77,99.14 359.06,98.93 360.34,98.72 361.63,98.52 362.92,98.31 364.21,98.11 365.49,97.92 366.78,97.72 368.07,97.53 369.36,97.34 370.64,97.15 371.93,96.96 373.22,96.78 374.51,96.60 375.79,96.42 377.08,96.25 378.37,96.07 379.66,95.90 380.94,95.73 382.23,95.56 383.52,95.40 384.81,95.23 " />
  <polygon
     id="polygon38"
     style="fill:#ed7842;fill-opacity:0.1;stroke:none;stroke-width:0.75;stroke-linecap:round;stroke-linejoin:round;stroke-miterlimit:10"
     points="82.22,314.74 83.5,307 84.79,299.41 86.08,291.99 87.37,284.73 88.66,277.61 89.94,270.64 91.23,263.8 92.52,257.11 93.81,250.55 95.09,244.12 96.38,237.82 97.67,231.65 98.96,225.61 100.24,219.69 101.53,213.89 102.82,208.21 104.11,202.65 105.39,197.21 106.68,191.87 107.97,186.65 109.26,181.53 110.54,176.53 111.83,171.62 113.12,166.81 114.41,162.11 115.7,157.5 116.98,152.98 118.27,148.56 119.56,144.23 120.85,139.99 122.13,135.84 123.42,131.77 124.71,127.78 126,123.88 127.28,120.05 128.57,116.31 129.86,112.64 131.15,109.04 132.43,105.52 133.72,102.07 135.01,98.69 136.3,95.38 137.58,92.14 225.14,94.36 223.86,95.67 222.57,97 221.28,98.33 219.99,99.68 218.7,101.04 217.42,102.41 216.13,103.79 214.84,105.19 213.55,106.59 212.27,108.01 210.98,109.44 209.69,110.88 208.4,112.34 207.12,113.8 205.83,115.28 204.54,116.77 203.25,118.28 201.97,119.79 200.68,121.32 199.39,122.86 198.1,124.42 196.82,125.98 195.53,127.56 194.24,129.16 192.95,130.77 191.66,132.39 190.38,134.02 189.09,135.67 187.8,137.33 186.51,139.01 185.23,140.7 183.94,142.4 182.65,144.12 181.36,145.85 180.08,147.6 178.79,149.36 177.5,151.14 176.21,152.93 174.93,154.74 173.64,156.56 172.35,158.4 171.06,160.25 169.78,162.12 168.49,164 167.2,165.9 165.91,167.82 164.62,169.75 163.34,171.7 162.05,173.67 160.76,175.65 159.47,177.64 158.19,179.66 156.9,181.69 155.61,183.74 154.32,185.81 153.04,187.89 151.75,189.99 150.46,192.11 149.17,194.24 147.89,196.4 146.6,198.57 145.31,200.76 144.02,202.97 142.74,205.2 141.45,207.44 140.16,209.71 138.87,211.99 137.58,214.29 136.3,216.62 135.01,218.96 133.72,221.32 132.43,223.7 131.15,226.1 129.86,228.53 128.57,230.97 127.28,233.43 126,235.91 124.71,238.42 123.42,240.94 122.13,243.49 120.85,246.06 119.56,248.65 118.27,251.26 116.98,253.89 115.7,256.55 114.41,259.22 113.12,261.92 111.83,264.65 110.54,267.39 109.26,270.16 107.97,272.95 106.68,275.77 105.39,278.61 104.11,281.47 102.82,284.36 101.53,287.27 100.24,290.2 98.96,293.16 97.67,296.15 96.38,299.16 95.09,302.19 93.81,305.25 92.52,308.34 91.23,311.45 89.94,314.59 88.66,317.76 87.37,320.95 86.08,324.17 84.79,327.41 83.5,330.68 82.22,333.98 80.93,337.31 79.64,340.67 78.35,344.05 77.07,347.47 78.35,339.01 79.64,330.74 80.93,322.66 " />
  <polyline
     id="polyline40"
     style="fill:none;stroke:#ed7842;stroke-width:0.75;stroke-linecap:round;stroke-linejoin:round;stroke-miterlimit:10;stroke-dasharray:4.5,4.5;stroke-dashoffset:0"
     points="77.07,347.47 78.35,340.96 79.64,334.57 80.93,328.28 82.22,322.09 83.50,316.00 84.79,310.01 86.08,304.12 87.37,298.32 88.66,292.62 89.94,287.00 91.23,281.47 92.52,276.03 93.81,270.67 95.09,265.40 96.38,260.21 97.67,255.10 98.96,250.07 100.24,245.12 101.53,240.25 102.82,235.46 104.11,230.74 105.39,226.10 106.68,221.53 107.97,217.04 109.26,212.61 110.54,208.26 111.83,203.97 113.12,199.76 114.41,195.61 115.70,191.52 116.98,187.51 118.27,183.55 119.56,179.66 120.85,175.83 122.13,172.06 123.42,168.35 124.71,164.69 126.00,161.10 127.28,157.56 128.57,154.08 129.86,150.65 131.15,147.28 132.43,143.96 133.72,140.69 135.01,137.48 136.30,134.31 137.58,131.20 138.87,128.14 140.16,125.12 141.45,122.15 142.74,119.23 144.02,116.36 145.31,113.53 146.60,110.75 147.89,108.01 149.17,105.31 150.46,102.66 151.75,100.05 153.04,97.48 154.32,94.95 " />
  <polygon
     id="polygon42"
     style="fill:#ed7842;fill-opacity:0.1;stroke:none;stroke-width:0.75;stroke-linecap:round;stroke-linejoin:round;stroke-miterlimit:10"
     points="82.22,341.92 83.5,340.55 84.79,339.19 86.08,337.84 87.37,336.49 88.66,335.15 89.94,333.82 91.23,332.49 92.52,331.17 93.81,329.86 95.09,328.55 96.38,327.25 97.67,325.96 98.96,324.67 100.24,323.39 101.53,322.12 102.82,320.86 104.11,319.6 105.39,318.34 106.68,317.1 107.97,315.86 109.26,314.63 110.54,313.4 111.83,312.18 113.12,310.96 114.41,309.76 115.7,308.56 116.98,307.36 118.27,306.17 119.56,304.99 120.85,303.81 122.13,302.64 123.42,301.48 124.71,300.32 126,299.16 127.28,298.02 128.57,296.88 129.86,295.74 131.15,294.61 132.43,293.49 133.72,292.37 135.01,291.26 136.3,290.16 137.58,289.06 138.87,287.96 140.16,286.88 141.45,285.79 142.74,284.72 144.02,283.64 145.31,282.58 146.6,281.52 147.89,280.46 149.17,279.41 150.46,278.37 151.75,277.33 153.04,276.3 154.32,275.27 155.61,274.25 156.9,273.23 158.19,272.22 159.47,271.21 160.76,270.21 162.05,269.21 163.34,268.22 164.62,267.24 165.91,266.26 167.2,265.28 168.49,264.31 169.78,263.34 171.06,262.38 172.35,261.43 173.64,260.48 174.93,259.53 176.21,258.59 177.5,257.65 178.79,256.72 180.08,255.8 181.36,254.88 182.65,253.96 183.94,253.05 185.23,252.14 186.51,251.24 187.8,250.34 189.09,249.45 190.38,248.56 191.66,247.67 192.95,246.8 194.24,245.92 195.53,245.05 196.82,244.19 198.1,243.32 199.39,242.47 200.68,241.62 201.97,240.77 203.25,239.92 204.54,239.09 205.83,238.25 207.12,237.42 208.4,236.59 209.69,235.77 210.98,234.96 212.27,234.14 213.55,233.33 214.84,232.53 216.13,231.73 217.42,230.93 218.7,230.14 219.99,229.35 221.28,228.57 222.57,227.79 223.86,227.01 225.14,226.24 226.43,225.47 227.72,224.71 229.01,223.95 230.29,223.19 231.58,222.44 232.87,221.69 234.16,220.95 235.44,220.21 236.73,219.47 238.02,218.74 239.31,218.01 240.59,217.28 241.88,216.56 243.17,215.84 244.46,215.13 245.74,214.42 247.03,213.71 248.32,213.01 249.61,212.31 250.9,211.61 252.18,210.92 253.47,210.23 254.76,209.55 256.05,208.87 257.33,208.19 258.62,207.52 259.91,206.85 261.2,206.18 262.48,205.51 263.77,204.85 265.06,204.2 266.35,203.54 267.63,202.89 268.92,202.25 270.21,201.6 271.5,200.96 272.78,200.33 274.07,199.69 275.36,199.06 276.65,198.44 277.94,197.81 279.22,197.19 280.51,196.57 281.8,195.96 283.09,195.35 284.37,194.74 285.66,194.14 286.95,193.54 288.24,192.94 289.52,192.34 290.81,191.75 292.1,191.16 293.39,190.58 294.67,189.99 295.96,189.41 297.25,188.84 298.54,188.26 299.82,187.69 301.11,187.13 302.4,186.56 303.69,186 304.98,185.44 306.26,184.88 307.55,184.33 308.84,183.78 310.13,183.23 311.41,182.69 312.7,182.15 313.99,181.61 315.28,181.07 316.56,180.54 317.85,180.01 319.14,179.48 320.43,178.95 321.71,178.43 323,177.91 324.29,177.39 325.58,176.88 326.86,176.37 328.15,175.86 329.44,175.35 330.73,174.85 332.02,174.35 333.3,173.85 334.59,173.35 335.88,172.86 337.17,172.37 338.45,171.88 339.74,171.39 341.03,170.91 342.32,170.43 343.6,169.95 344.89,169.48 346.18,169 347.47,168.53 348.75,168.06 350.04,167.6 351.33,167.14 352.62,166.67 353.9,166.22 355.19,165.76 356.48,165.31 357.77,164.85 359.06,164.4 360.34,163.96 361.63,163.51 362.92,163.07 364.21,162.63 365.49,162.19 366.78,161.76 368.07,161.32 369.36,160.89 370.64,160.46 371.93,160.04 373.22,159.61 374.51,159.19 375.79,158.77 377.08,158.35 378.37,157.94 379.66,157.53 380.94,157.11 382.23,156.71 383.52,156.3 384.81,155.89 386.1,155.49 387.38,155.09 388.67,154.69 389.96,154.3 391.25,153.9 392.53,153.51 393.82,153.12 395.11,152.73 396.4,152.34 397.68,151.96 398.97,151.58 400.26,151.2 401.55,150.82 402.83,150.44 404.12,150.07 405.41,149.69 406.7,149.32 407.98,148.96 409.27,148.59 410.56,148.22 411.85,147.86 413.14,147.5 414.42,147.14 415.71,146.78 417,146.43 418.29,146.07 419.57,145.72 420.86,145.37 422.15,145.02 423.44,144.68 424.72,144.33 426.01,143.99 427.3,143.65 428.59,143.31 429.87,142.97 431.16,142.64 432.45,142.3 433.74,141.97 435.02,141.64 436.31,141.31 437.6,140.99 438.89,140.66 440.18,140.34 441.46,140.02 442.75,139.69 444.04,139.38 445.33,139.06 446.61,138.74 447.9,138.43 449.19,138.12 450.48,137.81 451.76,137.5 453.05,137.19 454.34,136.89 455.63,136.58 456.91,136.28 458.2,135.98 459.49,135.68 460.78,135.38 462.06,135.09 463.35,134.79 464.64,134.5 465.93,134.21 467.22,133.92 468.5,133.63 469.79,133.34 471.08,133.05 472.37,132.77 473.65,132.49 474.94,132.21 476.23,131.93 477.52,131.65 478.8,131.37 480.09,131.1 481.38,130.82 482.67,130.55 483.95,130.28 485.24,130.01 486.53,129.74 487.82,129.47 489.1,129.21 490.39,128.94 491.68,128.68 492.97,128.42 494.26,128.16 495.54,127.9 496.83,127.64 498.12,127.39 499.41,127.13 500.69,126.88 501.98,126.63 503.27,126.38 504.56,126.13 505.84,125.88 507.13,125.63 508.42,125.39 509.71,125.14 510.99,124.9 512.28,124.66 513.57,124.42 514.86,124.18 516.14,123.94 517.43,123.7 518.72,123.47 520.01,123.23 521.3,123 522.58,122.77 523.87,122.54 525.16,122.31 526.45,122.08 527.73,121.85 529.02,121.62 530.31,121.4 531.6,121.18 532.88,120.95 534.17,120.73 535.46,120.51 536.75,120.29 538.03,120.08 539.32,119.86 540.61,119.64 541.9,119.43 543.18,119.21 544.47,119 545.76,118.79 547.05,118.58 548.34,118.37 549.62,118.16 550.91,117.96 552.2,117.75 553.49,117.55 554.77,117.34 556.06,117.14 557.35,116.94 558.64,116.74 559.92,116.54 561.21,116.34 562.5,116.14 563.79,115.95 565.07,115.75 566.36,115.56 567.65,115.36 568.94,115.17 570.22,114.98 571.51,114.79 572.8,114.6 574.09,114.41 575.38,114.23 576,114.13 576,217.04 575.38,217.15 574.09,217.39 572.8,217.63 571.51,217.87 570.22,218.1 568.94,218.34 567.65,218.58 566.36,218.82 565.07,219.06 563.79,219.31 562.5,219.55 561.21,219.79 559.92,220.03 558.64,220.27 557.35,220.52 556.06,220.76 554.77,221 553.49,221.25 552.2,221.49 550.91,221.74 549.62,221.98 548.34,222.23 547.05,222.48 545.76,222.72 544.47,222.97 543.18,223.22 541.9,223.47 540.61,223.71 539.32,223.96 538.03,224.21 536.75,224.46 535.46,224.71 534.17,224.96 532.88,225.21 531.6,225.47 530.31,225.72 529.02,225.97 527.73,226.22 526.45,226.48 525.16,226.73 523.87,226.98 522.58,227.24 521.3,227.49 520.01,227.75 518.72,228 517.43,228.26 516.14,228.52 514.86,228.77 513.57,229.03 512.28,229.29 510.99,229.55 509.71,229.81 508.42,230.07 507.13,230.33 505.84,230.59 504.56,230.85 503.27,231.11 501.98,231.37 500.69,231.63 499.41,231.89 498.12,232.16 496.83,232.42 495.54,232.68 494.26,232.95 492.97,233.21 491.68,233.48 490.39,233.74 489.1,234.01 487.82,234.28 486.53,234.54 485.24,234.81 483.95,235.08 482.67,235.35 481.38,235.62 480.09,235.89 478.8,236.16 477.52,236.43 476.23,236.7 474.94,236.97 473.65,237.24 472.37,237.51 471.08,237.78 469.79,238.06 468.5,238.33 467.22,238.6 465.93,238.88 464.64,239.15 463.35,239.43 462.06,239.7 460.78,239.98 459.49,240.26 458.2,240.54 456.91,240.81 455.63,241.09 454.34,241.37 453.05,241.65 451.76,241.93 450.48,242.21 449.19,242.49 447.9,242.77 446.61,243.05 445.33,243.33 444.04,243.62 442.75,243.9 441.46,244.18 440.18,244.47 438.89,244.75 437.6,245.04 436.31,245.32 435.02,245.61 433.74,245.89 432.45,246.18 431.16,246.47 429.87,246.76 428.59,247.04 427.3,247.33 426.01,247.62 424.72,247.91 423.44,248.2 422.15,248.49 420.86,248.78 419.57,249.08 418.29,249.37 417,249.66 415.71,249.96 414.42,250.25 413.14,250.54 411.85,250.84 410.56,251.13 409.27,251.43 407.98,251.73 406.7,252.02 405.41,252.32 404.12,252.62 402.83,252.92 401.55,253.22 400.26,253.51 398.97,253.81 397.68,254.12 396.4,254.42 395.11,254.72 393.82,255.02 392.53,255.32 391.25,255.63 389.96,255.93 388.67,256.23 387.38,256.54 386.1,256.84 384.81,257.15 383.52,257.45 382.23,257.76 380.94,258.07 379.66,258.38 378.37,258.68 377.08,258.99 375.79,259.3 374.51,259.61 373.22,259.92 371.93,260.23 370.64,260.55 369.36,260.86 368.07,261.17 366.78,261.48 365.49,261.8 364.21,262.11 362.92,262.42 361.63,262.74 360.34,263.06 359.06,263.37 357.77,263.69 356.48,264.01 355.19,264.32 353.9,264.64 352.62,264.96 351.33,265.28 350.04,265.6 348.75,265.92 347.47,266.24 346.18,266.56 344.89,266.89 343.6,267.21 342.32,267.53 341.03,267.86 339.74,268.18 338.45,268.51 337.17,268.83 335.88,269.16 334.59,269.49 333.3,269.81 332.02,270.14 330.73,270.47 329.44,270.8 328.15,271.13 326.86,271.46 325.58,271.79 324.29,272.12 323,272.45 321.71,272.78 320.43,273.12 319.14,273.45 317.85,273.78 316.56,274.12 315.28,274.45 313.99,274.79 312.7,275.13 311.41,275.46 310.13,275.8 308.84,276.14 307.55,276.48 306.26,276.82 304.98,277.16 303.69,277.5 302.4,277.84 301.11,278.18 299.82,278.52 298.54,278.86 297.25,279.21 295.96,279.55 294.67,279.9 293.39,280.24 292.1,280.59 290.81,280.93 289.52,281.28 288.24,281.63 286.95,281.98 285.66,282.32 284.37,282.67 283.09,283.02 281.8,283.37 280.51,283.72 279.22,284.08 277.94,284.43 276.65,284.78 275.36,285.14 274.07,285.49 272.78,285.84 271.5,286.2 270.21,286.56 268.92,286.91 267.63,287.27 266.35,287.63 265.06,287.98 263.77,288.34 262.48,288.7 261.2,289.06 259.91,289.42 258.62,289.79 257.33,290.15 256.05,290.51 254.76,290.87 253.47,291.24 252.18,291.6 250.9,291.97 249.61,292.33 248.32,292.7 247.03,293.07 245.74,293.43 244.46,293.8 243.17,294.17 241.88,294.54 240.59,294.91 239.31,295.28 238.02,295.65 236.73,296.03 235.44,296.4 234.16,296.77 232.87,297.15 231.58,297.52 230.29,297.9 229.01,298.27 227.72,298.65 226.43,299.03 225.14,299.4 223.86,299.78 222.57,300.16 221.28,300.54 219.99,300.92 218.7,301.3 217.42,301.68 216.13,302.07 214.84,302.45 213.55,302.83 212.27,303.22 210.98,303.6 209.69,303.99 208.4,304.37 207.12,304.76 205.83,305.15 204.54,305.54 203.25,305.93 201.97,306.32 200.68,306.71 199.39,307.1 198.1,307.49 196.82,307.88 195.53,308.27 194.24,308.67 192.95,309.06 191.66,309.46 190.38,309.85 189.09,310.25 187.8,310.65 186.51,311.04 185.23,311.44 183.94,311.84 182.65,312.24 181.36,312.64 180.08,313.04 178.79,313.45 177.5,313.85 176.21,314.25 174.93,314.66 173.64,315.06 172.35,315.47 171.06,315.87 169.78,316.28 168.49,316.69 167.2,317.09 165.91,317.5 164.62,317.91 163.34,318.32 162.05,318.73 160.76,319.14 159.47,319.56 158.19,319.97 156.9,320.38 155.61,320.8 154.32,321.21 153.04,321.63 151.75,322.05 150.46,322.46 149.17,322.88 147.89,323.3 146.6,323.72 145.31,324.14 144.02,324.56 142.74,324.98 141.45,325.4 140.16,325.83 138.87,326.25 137.58,326.67 136.3,327.1 135.01,327.53 133.72,327.95 132.43,328.38 131.15,328.81 129.86,329.24 128.57,329.67 127.28,330.1 126,330.53 124.71,330.96 123.42,331.39 122.13,331.83 120.85,332.26 119.56,332.69 118.27,333.13 116.98,333.57 115.7,334 114.41,334.44 113.12,334.88 111.83,335.32 110.54,335.76 109.26,336.2 107.97,336.64 106.68,337.08 105.39,337.53 104.11,337.97 102.82,338.41 101.53,338.86 100.24,339.31 98.96,339.75 97.67,340.2 96.38,340.65 95.09,341.1 93.81,341.55 92.52,342 91.23,342.45 89.94,342.9 88.66,343.35 87.37,343.81 86.08,344.26 84.79,344.72 83.5,345.17 82.22,345.63 80.93,346.09 79.64,346.55 78.35,347.01 77.07,347.47 78.35,346.07 79.64,344.68 80.93,343.3 " />
  <polyline
     id="polyline44"
     style="fill:none;stroke:#ed7842;stroke-width:0.75;stroke-linecap:round;stroke-linejoin:round;stroke-miterlimit:10"
     points="77.07,347.47 78.35,346.71 79.64,345.96 80.93,345.21 82.22,344.46 83.50,343.71 84.79,342.97 86.08,342.23 87.37,341.49 88.66,340.75 89.94,340.01 91.23,339.28 92.52,338.55 93.81,337.82 95.09,337.09 96.38,336.36 97.67,335.64 98.96,334.92 100.24,334.20 101.53,333.48 102.82,332.77 104.11,332.05 105.39,331.34 106.68,330.63 107.97,329.92 109.26,329.22 110.54,328.52 111.83,327.81 113.12,327.11 114.41,326.42 115.70,325.72 116.98,325.03 118.27,324.34 119.56,323.65 120.85,322.96 122.13,322.27 123.42,321.59 124.71,320.90 126.00,320.22 127.28,319.55 128.57,318.87 129.86,318.20 131.15,317.52 132.43,316.85 133.72,316.18 135.01,315.52 136.30,314.85 137.58,314.19 138.87,313.53 140.16,312.87 141.45,312.21 142.74,311.55 144.02,310.90 145.31,310.25 146.60,309.60 147.89,308.95 149.17,308.30 150.46,307.66 151.75,307.01 153.04,306.37 154.32,305.73 155.61,305.09 156.90,304.46 158.19,303.82 159.47,303.19 160.76,302.56 162.05,301.93 163.34,301.30 164.62,300.68 165.91,300.06 167.20,299.43 168.49,298.81 169.78,298.20 171.06,297.58 172.35,296.96 173.64,296.35 174.93,295.74 176.21,295.13 177.50,294.52 178.79,293.92 180.08,293.31 181.36,292.71 182.65,292.11 183.94,291.51 185.23,290.91 186.51,290.31 187.80,289.72 189.09,289.13 190.38,288.53 191.66,287.95 192.95,287.36 194.24,286.77 195.53,286.19 196.82,285.60 198.10,285.02 199.39,284.44 200.68,283.86 201.97,283.29 203.25,282.71 204.54,282.14 205.83,281.57 207.12,281.00 208.40,280.43 209.69,279.86 210.98,279.30 212.27,278.74 213.55,278.17 214.84,277.61 216.13,277.05 217.42,276.50 218.70,275.94 219.99,275.39 221.28,274.83 222.57,274.28 223.86,273.73 225.14,273.19 226.43,272.64 227.72,272.09 229.01,271.55 230.29,271.01 231.58,270.47 232.87,269.93 234.16,269.39 235.44,268.86 236.73,268.32 238.02,267.79 239.31,267.26 240.59,266.73 241.88,266.20 243.17,265.67 244.46,265.15 245.74,264.62 247.03,264.10 248.32,263.58 249.61,263.06 250.90,262.54 252.18,262.03 253.47,261.51 254.76,261.00 256.05,260.48 257.33,259.97 258.62,259.46 259.91,258.96 261.20,258.45 262.48,257.94 263.77,257.44 265.06,256.94 266.35,256.44 267.63,255.94 268.92,255.44 270.21,254.94 271.50,254.45 272.78,253.95 274.07,253.46 275.36,252.97 276.65,252.48 277.94,251.99 279.22,251.51 280.51,251.02 281.80,250.54 283.09,250.05 284.37,249.57 285.66,249.09 286.95,248.61 288.24,248.13 289.52,247.66 290.81,247.18 292.10,246.71 293.39,246.24 294.67,245.77 295.96,245.30 297.25,244.83 298.54,244.36 299.82,243.90 301.11,243.43 302.40,242.97 303.69,242.51 304.98,242.05 306.26,241.59 307.55,241.13 308.84,240.67 310.13,240.22 311.41,239.76 312.70,239.31 313.99,238.86 315.28,238.41 316.56,237.96 317.85,237.51 319.14,237.07 320.43,236.62 321.71,236.18 323.00,235.73 324.29,235.29 325.58,234.85 326.86,234.41 328.15,233.98 329.44,233.54 330.73,233.10 332.02,232.67 333.30,232.24 334.59,231.81 335.88,231.38 337.17,230.95 338.45,230.52 339.74,230.09 341.03,229.67 342.32,229.24 343.60,228.82 344.89,228.40 346.18,227.98 347.47,227.56 348.75,227.14 350.04,226.72 351.33,226.30 352.62,225.89 353.90,225.47 355.19,225.06 356.48,224.65 357.77,224.24 359.06,223.83 360.34,223.42 361.63,223.02 362.92,222.61 364.21,222.21 365.49,221.80 366.78,221.40 368.07,221.00 369.36,220.60 370.64,220.20 371.93,219.80 373.22,219.40 374.51,219.01 375.79,218.61 377.08,218.22 378.37,217.83 379.66,217.44 380.94,217.05 382.23,216.66 383.52,216.27 384.81,215.88 386.10,215.50 387.38,215.11 388.67,214.73 389.96,214.35 391.25,213.97 392.53,213.59 393.82,213.21 395.11,212.83 396.40,212.45 397.68,212.07 398.97,211.70 400.26,211.33 401.55,210.95 402.83,210.58 404.12,210.21 405.41,209.84 406.70,209.47 407.98,209.10 409.27,208.74 410.56,208.37 411.85,208.01 413.14,207.64 414.42,207.28 415.71,206.92 417.00,206.56 418.29,206.20 419.57,205.84 420.86,205.48 422.15,205.12 423.44,204.77 424.72,204.41 426.01,204.06 427.30,203.71 428.59,203.36 429.87,203.01 431.16,202.66 432.45,202.31 433.74,201.96 435.02,201.61 436.31,201.27 437.60,200.92 438.89,200.58 440.18,200.24 441.46,199.89 442.75,199.55 444.04,199.21 445.33,198.87 446.61,198.54 447.90,198.20 449.19,197.86 450.48,197.53 451.76,197.19 453.05,196.86 454.34,196.53 455.63,196.20 456.91,195.87 458.20,195.54 459.49,195.21 460.78,194.88 462.06,194.55 463.35,194.23 464.64,193.90 465.93,193.58 467.22,193.25 468.50,192.93 469.79,192.61 471.08,192.29 472.37,191.97 473.65,191.65 474.94,191.33 476.23,191.02 477.52,190.70 478.80,190.39 480.09,190.07 481.38,189.76 482.67,189.45 483.95,189.13 485.24,188.82 486.53,188.51 487.82,188.20 489.10,187.90 490.39,187.59 491.68,187.28 492.97,186.98 494.26,186.67 495.54,186.37 496.83,186.07 498.12,185.76 499.41,185.46 500.69,185.16 501.98,184.86 503.27,184.56 504.56,184.27 505.84,183.97 507.13,183.67 508.42,183.38 509.71,183.08 510.99,182.79 512.28,182.50 513.57,182.20 514.86,181.91 516.14,181.62 517.43,181.33 518.72,181.04 520.01,180.75 521.30,180.47 522.58,180.18 523.87,179.90 525.16,179.61 526.45,179.33 527.73,179.04 529.02,178.76 530.31,178.48 531.60,178.20 532.88,177.92 534.17,177.64 535.46,177.36 536.75,177.08 538.03,176.81 539.32,176.53 540.61,176.25 541.90,175.98 543.18,175.71 544.47,175.43 545.76,175.16 547.05,174.89 548.34,174.62 549.62,174.35 550.91,174.08 552.20,173.81 553.49,173.54 554.77,173.27 556.06,173.01 557.35,172.74 558.64,172.48 559.92,172.21 561.21,171.95 562.50,171.69 563.79,171.43 565.07,171.17 566.36,170.91 567.65,170.65 568.94,170.39 570.22,170.13 571.51,169.87 572.80,169.61 574.09,169.36 575.38,169.10 576.00,168.98 " />
  <polyline
     id="polyline48"
     style="fill:none;stroke:#3bb370;stroke-width:0.75;stroke-linecap:round;stroke-linejoin:round;stroke-miterlimit:10;stroke-dasharray:4.5,4.5;stroke-dashoffset:0"
     points="77.07,347.47 78.35,345.61 79.64,343.77 80.93,341.94 82.22,340.11 83.50,338.30 84.79,336.50 86.08,334.71 87.37,332.92 88.66,331.15 89.94,329.39 91.23,327.64 92.52,325.90 93.81,324.16 95.09,322.44 96.38,320.73 97.67,319.02 98.96,317.33 100.24,315.65 101.53,313.97 102.82,312.30 104.11,310.65 105.39,309.00 106.68,307.36 107.97,305.74 109.26,304.12 110.54,302.51 111.83,300.91 113.12,299.31 114.41,297.73 115.70,296.16 116.98,294.59 118.27,293.04 119.56,291.49 120.85,289.95 122.13,288.42 123.42,286.90 124.71,285.38 126.00,283.88 127.28,282.38 128.57,280.89 129.86,279.42 131.15,277.94 132.43,276.48 133.72,275.03 135.01,273.58 136.30,272.14 137.58,270.71 138.87,269.29 140.16,267.88 141.45,266.47 142.74,265.07 144.02,263.68 145.31,262.30 146.60,260.92 147.89,259.56 149.17,258.20 150.46,256.85 151.75,255.50 153.04,254.16 154.32,252.84 155.61,251.51 156.90,250.20 158.19,248.89 159.47,247.59 160.76,246.30 162.05,245.02 163.34,243.74 164.62,242.47 165.91,241.21 167.20,239.95 168.49,238.70 169.78,237.46 171.06,236.22 172.35,235.00 173.64,233.77 174.93,232.56 176.21,231.35 177.50,230.15 178.79,228.96 180.08,227.77 181.36,226.59 182.65,225.42 183.94,224.25 185.23,223.09 186.51,221.93 187.80,220.79 189.09,219.65 190.38,218.51 191.66,217.38 192.95,216.26 194.24,215.14 195.53,214.03 196.82,212.93 198.10,211.83 199.39,210.74 200.68,209.66 201.97,208.58 203.25,207.51 204.54,206.44 205.83,205.38 207.12,204.33 208.40,203.28 209.69,202.23 210.98,201.20 212.27,200.17 213.55,199.14 214.84,198.12 216.13,197.11 217.42,196.10 218.70,195.10 219.99,194.10 221.28,193.11 222.57,192.12 223.86,191.14 225.14,190.17 226.43,189.20 227.72,188.24 229.01,187.28 230.29,186.33 231.58,185.38 232.87,184.44 234.16,183.50 235.44,182.57 236.73,181.64 238.02,180.72 239.31,179.80 240.59,178.89 241.88,177.99 243.17,177.09 244.46,176.19 245.74,175.30 247.03,174.42 248.32,173.54 249.61,172.66 250.90,171.79 252.18,170.93 253.47,170.06 254.76,169.21 256.05,168.36 257.33,167.51 258.62,166.67 259.91,165.83 261.20,165.00 262.48,164.17 263.77,163.35 265.06,162.53 266.35,161.72 267.63,160.91 268.92,160.11 270.21,159.31 271.50,158.51 272.78,157.72 274.07,156.93 275.36,156.15 276.65,155.37 277.94,154.60 279.22,153.83 280.51,153.07 281.80,152.31 283.09,151.55 284.37,150.80 285.66,150.05 286.95,149.31 288.24,148.57 289.52,147.83 290.81,147.10 292.10,146.38 293.39,145.65 294.67,144.93 295.96,144.22 297.25,143.51 298.54,142.80 299.82,142.10 301.11,141.40 302.40,140.71 303.69,140.02 304.98,139.33 306.26,138.65 307.55,137.97 308.84,137.29 310.13,136.62 311.41,135.95 312.70,135.29 313.99,134.63 315.28,133.97 316.56,133.32 317.85,132.67 319.14,132.02 320.43,131.38 321.71,130.74 323.00,130.11 324.29,129.48 325.58,128.85 326.86,128.23 328.15,127.61 329.44,126.99 330.73,126.38 332.02,125.77 333.30,125.16 334.59,124.56 335.88,123.96 337.17,123.36 338.45,122.77 339.74,122.18 341.03,121.59 342.32,121.01 343.60,120.43 344.89,119.85 346.18,119.28 347.47,118.71 348.75,118.14 350.04,117.57 351.33,117.01 352.62,116.46 353.90,115.90 355.19,115.35 356.48,114.80 357.77,114.26 359.06,113.72 360.34,113.18 361.63,112.64 362.92,112.11 364.21,111.58 365.49,111.05 366.78,110.53 368.07,110.01 369.36,109.49 370.64,108.97 371.93,108.46 373.22,107.95 374.51,107.45 375.79,106.94 377.08,106.44 378.37,105.94 379.66,105.45 380.94,104.96 382.23,104.47 383.52,103.98 384.81,103.49 386.10,103.01 387.38,102.53 388.67,102.06 389.96,101.59 391.25,101.11 392.53,100.65 393.82,100.18 395.11,99.72 396.40,99.26 397.68,98.80 398.97,98.35 400.26,97.89 401.55,97.44 402.83,97.00 404.12,96.55 405.41,96.11 406.70,95.67 407.98,95.23 " />
  <polygon
     id="polygon50"
     style="fill:#3bb370;fill-opacity:0.2;stroke:none;stroke-width:0.75;stroke-linecap:round;stroke-linejoin:round;stroke-miterlimit:10"
     points="82.22,343.14 83.5,342.07 84.79,341 86.08,339.94 87.37,338.88 88.66,337.83 89.94,336.78 91.23,335.73 92.52,334.69 93.81,333.65 95.09,332.62 96.38,331.59 97.67,330.56 98.96,329.54 100.24,328.52 101.53,327.51 102.82,326.5 104.11,325.49 105.39,324.49 106.68,323.49 107.97,322.5 109.26,321.51 110.54,320.52 111.83,319.54 113.12,318.56 114.41,317.58 115.7,316.61 116.98,315.64 118.27,314.68 119.56,313.72 120.85,312.76 122.13,311.81 123.42,310.86 124.71,309.91 126,308.97 127.28,308.03 128.57,307.1 129.86,306.17 131.15,305.24 132.43,304.32 133.72,303.4 135.01,302.48 136.3,301.57 137.58,300.66 138.87,299.75 140.16,298.85 141.45,297.95 142.74,297.05 144.02,296.16 145.31,295.27 146.6,294.39 147.89,293.51 149.17,292.63 150.46,291.75 151.75,290.88 153.04,290.02 154.32,289.15 155.61,288.29 156.9,287.43 158.19,286.58 159.47,285.73 160.76,284.88 162.05,284.03 163.34,283.19 164.62,282.35 165.91,281.52 167.2,280.69 168.49,279.86 169.78,279.03 171.06,278.21 172.35,277.39 173.64,276.58 174.93,275.76 176.21,274.95 177.5,274.15 178.79,273.34 180.08,272.54 181.36,271.75 182.65,270.95 183.94,270.16 185.23,269.38 186.51,268.59 187.8,267.81 189.09,267.03 190.38,266.26 191.66,265.48 192.95,264.71 194.24,263.95 195.53,263.18 196.82,262.42 198.1,261.66 199.39,260.91 200.68,260.16 201.97,259.41 203.25,258.66 204.54,257.92 205.83,257.18 207.12,256.44 208.4,255.71 209.69,254.98 210.98,254.25 212.27,253.52 213.55,252.8 214.84,252.08 216.13,251.36 217.42,250.65 218.7,249.94 219.99,249.23 221.28,248.52 222.57,247.82 223.86,247.11 225.14,246.42 226.43,245.72 227.72,245.03 229.01,244.34 230.29,243.65 231.58,242.97 232.87,242.28 234.16,241.6 235.44,240.93 236.73,240.25 238.02,239.58 239.31,238.91 240.59,238.25 241.88,237.58 243.17,236.92 244.46,236.26 245.74,235.61 247.03,234.95 248.32,234.3 249.61,233.65 250.9,233.01 252.18,232.36 253.47,231.72 254.76,231.08 256.05,230.45 257.33,229.81 258.62,229.18 259.91,228.55 261.2,227.93 262.48,227.3 263.77,226.68 265.06,226.06 266.35,225.45 267.63,224.83 268.92,224.22 270.21,223.61 271.5,223.01 272.78,222.4 274.07,221.8 275.36,221.2 276.65,220.6 277.94,220 279.22,219.41 280.51,218.82 281.8,218.23 283.09,217.65 284.37,217.06 285.66,216.48 286.95,215.9 288.24,215.32 289.52,214.75 290.81,214.18 292.1,213.61 293.39,213.04 294.67,212.47 295.96,211.91 297.25,211.35 298.54,210.79 299.82,210.23 301.11,209.67 302.4,209.12 303.69,208.57 304.98,208.02 306.26,207.48 307.55,206.93 308.84,206.39 310.13,205.85 311.41,205.31 312.7,204.77 313.99,204.24 315.28,203.71 316.56,203.18 317.85,202.65 319.14,202.13 320.43,201.6 321.71,201.08 323,200.56 324.29,200.04 325.58,199.53 326.86,199.01 328.15,198.5 329.44,197.99 330.73,197.48 332.02,196.98 333.3,196.47 334.59,195.97 335.88,195.47 337.17,194.98 338.45,194.48 339.74,193.99 341.03,193.49 342.32,193 343.6,192.51 344.89,192.03 346.18,191.54 347.47,191.06 348.75,190.58 350.04,190.1 351.33,189.62 352.62,189.15 353.9,188.68 355.19,188.2 356.48,187.73 357.77,187.27 359.06,186.8 360.34,186.34 361.63,185.87 362.92,185.41 364.21,184.95 365.49,184.5 366.78,184.04 368.07,183.59 369.36,183.14 370.64,182.69 371.93,182.24 373.22,181.79 374.51,181.35 375.79,180.9 377.08,180.46 378.37,180.02 379.66,179.59 380.94,179.15 382.23,178.71 383.52,178.28 384.81,177.85 386.1,177.42 387.38,176.99 388.67,176.57 389.96,176.14 391.25,175.72 392.53,175.3 393.82,174.88 395.11,174.46 396.4,174.04 397.68,173.63 398.97,173.22 400.26,172.8 401.55,172.39 402.83,171.99 404.12,171.58 405.41,171.17 406.7,170.77 407.98,170.37 409.27,169.97 410.56,169.57 411.85,169.17 413.14,168.78 414.42,168.38 415.71,167.99 417,167.6 418.29,167.21 419.57,166.82 420.86,166.43 422.15,166.05 423.44,165.66 424.72,165.28 426.01,164.9 427.3,164.52 428.59,164.14 429.87,163.77 431.16,163.39 432.45,163.02 433.74,162.65 435.02,162.28 436.31,161.91 437.6,161.54 438.89,161.17 440.18,160.81 441.46,160.45 442.75,160.08 444.04,159.72 445.33,159.36 446.61,159.01 447.9,158.65 449.19,158.29 450.48,157.94 451.76,157.59 453.05,157.24 454.34,156.89 455.63,156.54 456.91,156.19 458.2,155.85 459.49,155.5 460.78,155.16 462.06,154.82 463.35,154.48 464.64,154.14 465.93,153.8 467.22,153.47 468.5,153.13 469.79,152.8 471.08,152.47 472.37,152.13 473.65,151.8 474.94,151.48 476.23,151.15 477.52,150.82 478.8,150.5 480.09,150.18 481.38,149.85 482.67,149.53 483.95,149.21 485.24,148.89 486.53,148.58 487.82,148.26 489.1,147.95 490.39,147.63 491.68,147.32 492.97,147.01 494.26,146.7 495.54,146.39 496.83,146.08 498.12,145.78 499.41,145.47 500.69,145.17 501.98,144.87 503.27,144.56 504.56,144.26 505.84,143.96 507.13,143.67 508.42,143.37 509.71,143.07 510.99,142.78 512.28,142.49 513.57,142.19 514.86,141.9 516.14,141.61 517.43,141.32 518.72,141.04 520.01,140.75 521.3,140.46 522.58,140.18 523.87,139.9 525.16,139.61 526.45,139.33 527.73,139.05 529.02,138.77 530.31,138.49 531.6,138.22 532.88,137.94 534.17,137.67 535.46,137.39 536.75,137.12 538.03,136.85 539.32,136.58 540.61,136.31 541.9,136.04 543.18,135.77 544.47,135.51 545.76,135.24 547.05,134.98 548.34,134.72 549.62,134.45 550.91,134.19 552.2,133.93 553.49,133.67 554.77,133.41 556.06,133.16 557.35,132.9 558.64,132.65 559.92,132.39 561.21,132.14 562.5,131.89 563.79,131.64 565.07,131.39 566.36,131.14 567.65,130.89 568.94,130.64 570.22,130.39 571.51,130.15 572.8,129.9 574.09,129.66 575.38,129.42 576,129.3 576,207.55 575.38,207.67 574.09,207.92 572.8,208.18 571.51,208.43 570.22,208.68 568.94,208.93 567.65,209.19 566.36,209.44 565.07,209.69 563.79,209.95 562.5,210.2 561.21,210.46 559.92,210.71 558.64,210.97 557.35,211.23 556.06,211.49 554.77,211.74 553.49,212 552.2,212.26 550.91,212.52 549.62,212.78 548.34,213.04 547.05,213.3 545.76,213.56 544.47,213.82 543.18,214.08 541.9,214.35 540.61,214.61 539.32,214.87 538.03,215.14 536.75,215.4 535.46,215.67 534.17,215.93 532.88,216.2 531.6,216.46 530.31,216.73 529.02,217 527.73,217.26 526.45,217.53 525.16,217.8 523.87,218.07 522.58,218.34 521.3,218.61 520.01,218.88 518.72,219.15 517.43,219.42 516.14,219.69 514.86,219.97 513.57,220.24 512.28,220.51 510.99,220.79 509.71,221.06 508.42,221.34 507.13,221.61 505.84,221.89 504.56,222.16 503.27,222.44 501.98,222.72 500.69,223 499.41,223.27 498.12,223.55 496.83,223.83 495.54,224.11 494.26,224.39 492.97,224.67 491.68,224.95 490.39,225.24 489.1,225.52 487.82,225.8 486.53,226.09 485.24,226.37 483.95,226.65 482.67,226.94 481.38,227.22 480.09,227.51 478.8,227.8 477.52,228.08 476.23,228.37 474.94,228.66 473.65,228.95 472.37,229.24 471.08,229.53 469.79,229.82 468.5,230.11 467.22,230.4 465.93,230.69 464.64,230.98 463.35,231.27 462.06,231.57 460.78,231.86 459.49,232.15 458.2,232.45 456.91,232.74 455.63,233.04 454.34,233.34 453.05,233.63 451.76,233.93 450.48,234.23 449.19,234.53 447.9,234.82 446.61,235.12 445.33,235.42 444.04,235.72 442.75,236.03 441.46,236.33 440.18,236.63 438.89,236.93 437.6,237.24 436.31,237.54 435.02,237.84 433.74,238.15 432.45,238.45 431.16,238.76 429.87,239.07 428.59,239.37 427.3,239.68 426.01,239.99 424.72,240.3 423.44,240.61 422.15,240.92 420.86,241.23 419.57,241.54 418.29,241.85 417,242.16 415.71,242.47 414.42,242.79 413.14,243.1 411.85,243.42 410.56,243.73 409.27,244.05 407.98,244.36 406.7,244.68 405.41,244.99 404.12,245.31 402.83,245.63 401.55,245.95 400.26,246.27 398.97,246.59 397.68,246.91 396.4,247.23 395.11,247.55 393.82,247.87 392.53,248.2 391.25,248.52 389.96,248.84 388.67,249.17 387.38,249.49 386.1,249.82 384.81,250.15 383.52,250.47 382.23,250.8 380.94,251.13 379.66,251.46 378.37,251.79 377.08,252.12 375.79,252.45 374.51,252.78 373.22,253.11 371.93,253.44 370.64,253.77 369.36,254.11 368.07,254.44 366.78,254.77 365.49,255.11 364.21,255.45 362.92,255.78 361.63,256.12 360.34,256.46 359.06,256.79 357.77,257.13 356.48,257.47 355.19,257.81 353.9,258.15 352.62,258.49 351.33,258.84 350.04,259.18 348.75,259.52 347.47,259.86 346.18,260.21 344.89,260.55 343.6,260.9 342.32,261.24 341.03,261.59 339.74,261.94 338.45,262.29 337.17,262.63 335.88,262.98 334.59,263.33 333.3,263.68 332.02,264.04 330.73,264.39 329.44,264.74 328.15,265.09 326.86,265.45 325.58,265.8 324.29,266.15 323,266.51 321.71,266.87 320.43,267.22 319.14,267.58 317.85,267.94 316.56,268.3 315.28,268.66 313.99,269.02 312.7,269.38 311.41,269.74 310.13,270.1 308.84,270.46 307.55,270.82 306.26,271.19 304.98,271.55 303.69,271.92 302.4,272.28 301.11,272.65 299.82,273.02 298.54,273.38 297.25,273.75 295.96,274.12 294.67,274.49 293.39,274.86 292.1,275.23 290.81,275.6 289.52,275.98 288.24,276.35 286.95,276.72 285.66,277.1 284.37,277.47 283.09,277.85 281.8,278.22 280.51,278.6 279.22,278.98 277.94,279.36 276.65,279.74 275.36,280.12 274.07,280.5 272.78,280.88 271.5,281.26 270.21,281.64 268.92,282.02 267.63,282.41 266.35,282.79 265.06,283.18 263.77,283.56 262.48,283.95 261.2,284.34 259.91,284.73 258.62,285.11 257.33,285.5 256.05,285.89 254.76,286.28 253.47,286.67 252.18,287.07 250.9,287.46 249.61,287.85 248.32,288.25 247.03,288.64 245.74,289.04 244.46,289.43 243.17,289.83 241.88,290.23 240.59,290.63 239.31,291.03 238.02,291.43 236.73,291.83 235.44,292.23 234.16,292.63 232.87,293.03 231.58,293.44 230.29,293.84 229.01,294.24 227.72,294.65 226.43,295.06 225.14,295.46 223.86,295.87 222.57,296.28 221.28,296.69 219.99,297.1 218.7,297.51 217.42,297.92 216.13,298.33 214.84,298.75 213.55,299.16 212.27,299.57 210.98,299.99 209.69,300.41 208.4,300.82 207.12,301.24 205.83,301.66 204.54,302.08 203.25,302.5 201.97,302.92 200.68,303.34 199.39,303.76 198.1,304.18 196.82,304.6 195.53,305.03 194.24,305.45 192.95,305.88 191.66,306.31 190.38,306.73 189.09,307.16 187.8,307.59 186.51,308.02 185.23,308.45 183.94,308.88 182.65,309.31 181.36,309.74 180.08,310.18 178.79,310.61 177.5,311.05 176.21,311.48 174.93,311.92 173.64,312.36 172.35,312.79 171.06,313.23 169.78,313.67 168.49,314.11 167.2,314.55 165.91,314.99 164.62,315.44 163.34,315.88 162.05,316.32 160.76,316.77 159.47,317.22 158.19,317.66 156.9,318.11 155.61,318.56 154.32,319.01 153.04,319.46 151.75,319.91 150.46,320.36 149.17,320.81 147.89,321.26 146.6,321.72 145.31,322.17 144.02,322.63 142.74,323.08 141.45,323.54 140.16,324 138.87,324.46 137.58,324.92 136.3,325.38 135.01,325.84 133.72,326.3 132.43,326.76 131.15,327.23 129.86,327.69 128.57,328.16 127.28,328.62 126,329.09 124.71,329.56 123.42,330.03 122.13,330.5 120.85,330.97 119.56,331.44 118.27,331.91 116.98,332.38 115.7,332.86 114.41,333.33 113.12,333.81 111.83,334.28 110.54,334.76 109.26,335.24 107.97,335.72 106.68,336.2 105.39,336.68 104.11,337.16 102.82,337.64 101.53,338.12 100.24,338.61 98.96,339.09 97.67,339.58 96.38,340.06 95.09,340.55 93.81,341.04 92.52,341.53 91.23,342.02 89.94,342.51 88.66,343 87.37,343.49 86.08,343.99 84.79,344.48 83.5,344.98 82.22,345.47 80.93,345.97 79.64,346.47 78.35,346.97 77.07,347.47 78.35,346.38 79.64,345.3 80.93,344.22 " />
  <polyline
     id="polyline52"
     style="fill:none;stroke:#3bb370;stroke-width:0.75;stroke-linecap:round;stroke-linejoin:round;stroke-miterlimit:10"
     points="77.07,347.47 78.35,346.59 79.64,345.72 80.93,344.85 82.22,343.99 83.50,343.13 84.79,342.26 86.08,341.41 87.37,340.55 88.66,339.70 89.94,338.85 91.23,338.00 92.52,337.16 93.81,336.32 95.09,335.48 96.38,334.64 97.67,333.81 98.96,332.98 100.24,332.15 101.53,331.32 102.82,330.50 104.11,329.68 105.39,328.86 106.68,328.04 107.97,327.23 109.26,326.42 110.54,325.61 111.83,324.81 113.12,324.00 114.41,323.20 115.70,322.41 116.98,321.61 118.27,320.82 119.56,320.03 120.85,319.24 122.13,318.45 123.42,317.67 124.71,316.89 126.00,316.11 127.28,315.33 128.57,314.56 129.86,313.79 131.15,313.02 132.43,312.25 133.72,311.49 135.01,310.73 136.30,309.97 137.58,309.21 138.87,308.46 140.16,307.70 141.45,306.96 142.74,306.21 144.02,305.46 145.31,304.72 146.60,303.98 147.89,303.24 149.17,302.50 150.46,301.77 151.75,301.04 153.04,300.31 154.32,299.58 155.61,298.86 156.90,298.14 158.19,297.42 159.47,296.70 160.76,295.98 162.05,295.27 163.34,294.56 164.62,293.85 165.91,293.14 167.20,292.44 168.49,291.74 169.78,291.04 171.06,290.34 172.35,289.64 173.64,288.95 174.93,288.26 176.21,287.57 177.50,286.88 178.79,286.20 180.08,285.52 181.36,284.83 182.65,284.16 183.94,283.48 185.23,282.81 186.51,282.13 187.80,281.46 189.09,280.80 190.38,280.13 191.66,279.47 192.95,278.80 194.24,278.14 195.53,277.49 196.82,276.83 198.10,276.18 199.39,275.53 200.68,274.88 201.97,274.23 203.25,273.58 204.54,272.94 205.83,272.30 207.12,271.66 208.40,271.02 209.69,270.39 210.98,269.75 212.27,269.12 213.55,268.49 214.84,267.86 216.13,267.24 217.42,266.61 218.70,265.99 219.99,265.37 221.28,264.75 222.57,264.14 223.86,263.52 225.14,262.91 226.43,262.30 227.72,261.69 229.01,261.09 230.29,260.48 231.58,259.88 232.87,259.28 234.16,258.68 235.44,258.08 236.73,257.49 238.02,256.90 239.31,256.30 240.59,255.71 241.88,255.13 243.17,254.54 244.46,253.96 245.74,253.37 247.03,252.79 248.32,252.22 249.61,251.64 250.90,251.06 252.18,250.49 253.47,249.92 254.76,249.35 256.05,248.78 257.33,248.21 258.62,247.65 259.91,247.09 261.20,246.53 262.48,245.97 263.77,245.41 265.06,244.85 266.35,244.30 267.63,243.75 268.92,243.20 270.21,242.65 271.50,242.10 272.78,241.56 274.07,241.01 275.36,240.47 276.65,239.93 277.94,239.39 279.22,238.86 280.51,238.32 281.80,237.79 283.09,237.25 284.37,236.72 285.66,236.20 286.95,235.67 288.24,235.14 289.52,234.62 290.81,234.10 292.10,233.58 293.39,233.06 294.67,232.54 295.96,232.03 297.25,231.51 298.54,231.00 299.82,230.49 301.11,229.98 302.40,229.47 303.69,228.97 304.98,228.46 306.26,227.96 307.55,227.46 308.84,226.96 310.13,226.46 311.41,225.96 312.70,225.47 313.99,224.98 315.28,224.48 316.56,223.99 317.85,223.50 319.14,223.02 320.43,222.53 321.71,222.05 323.00,221.56 324.29,221.08 325.58,220.60 326.86,220.12 328.15,219.65 329.44,219.17 330.73,218.70 332.02,218.23 333.30,217.75 334.59,217.29 335.88,216.82 337.17,216.35 338.45,215.89 339.74,215.42 341.03,214.96 342.32,214.50 343.60,214.04 344.89,213.58 346.18,213.13 347.47,212.67 348.75,212.22 350.04,211.76 351.33,211.31 352.62,210.86 353.90,210.42 355.19,209.97 356.48,209.52 357.77,209.08 359.06,208.64 360.34,208.20 361.63,207.76 362.92,207.32 364.21,206.88 365.49,206.45 366.78,206.01 368.07,205.58 369.36,205.15 370.64,204.72 371.93,204.29 373.22,203.86 374.51,203.44 375.79,203.01 377.08,202.59 378.37,202.17 379.66,201.74 380.94,201.33 382.23,200.91 383.52,200.49 384.81,200.07 386.10,199.66 387.38,199.25 388.67,198.84 389.96,198.42 391.25,198.02 392.53,197.61 393.82,197.20 395.11,196.80 396.40,196.39 397.68,195.99 398.97,195.59 400.26,195.19 401.55,194.79 402.83,194.39 404.12,193.99 405.41,193.60 406.70,193.20 407.98,192.81 409.27,192.42 410.56,192.03 411.85,191.64 413.14,191.25 414.42,190.86 415.71,190.48 417.00,190.09 418.29,189.71 419.57,189.33 420.86,188.95 422.15,188.57 423.44,188.19 424.72,187.81 426.01,187.44 427.30,187.06 428.59,186.69 429.87,186.32 431.16,185.94 432.45,185.57 433.74,185.20 435.02,184.84 436.31,184.47 437.60,184.10 438.89,183.74 440.18,183.38 441.46,183.01 442.75,182.65 444.04,182.29 445.33,181.93 446.61,181.58 447.90,181.22 449.19,180.86 450.48,180.51 451.76,180.16 453.05,179.80 454.34,179.45 455.63,179.10 456.91,178.75 458.20,178.40 459.49,178.06 460.78,177.71 462.06,177.37 463.35,177.02 464.64,176.68 465.93,176.34 467.22,176.00 468.50,175.66 469.79,175.32 471.08,174.99 472.37,174.65 473.65,174.31 474.94,173.98 476.23,173.65 477.52,173.31 478.80,172.98 480.09,172.65 481.38,172.33 482.67,172.00 483.95,171.67 485.24,171.34 486.53,171.02 487.82,170.70 489.10,170.37 490.39,170.05 491.68,169.73 492.97,169.41 494.26,169.09 495.54,168.77 496.83,168.46 498.12,168.14 499.41,167.83 500.69,167.51 501.98,167.20 503.27,166.89 504.56,166.58 505.84,166.27 507.13,165.96 508.42,165.65 509.71,165.34 510.99,165.04 512.28,164.73 513.57,164.43 514.86,164.12 516.14,163.82 517.43,163.52 518.72,163.22 520.01,162.92 521.30,162.62 522.58,162.33 523.87,162.03 525.16,161.73 526.45,161.44 527.73,161.14 529.02,160.85 530.31,160.56 531.60,160.27 532.88,159.98 534.17,159.69 535.46,159.40 536.75,159.11 538.03,158.83 539.32,158.54 540.61,158.25 541.90,157.97 543.18,157.69 544.47,157.41 545.76,157.12 547.05,156.84 548.34,156.56 549.62,156.29 550.91,156.01 552.20,155.73 553.49,155.45 554.77,155.18 556.06,154.90 557.35,154.63 558.64,154.36 559.92,154.09 561.21,153.82 562.50,153.55 563.79,153.28 565.07,153.01 566.36,152.74 567.65,152.47 568.94,152.21 570.22,151.94 571.51,151.68 572.80,151.41 574.09,151.15 575.38,150.89 576.00,150.76 " />
  <polygon
     id="polygon54"
     style="fill:#ffffff;stroke:none;stroke-width:0.75;stroke-linecap:round;stroke-linejoin:round;stroke-miterlimit:10"
     points="77.07,95.35 334.59,95.35 334.59,0 77.07,0 " />
  <polyline
     id="polyline56"
     style="fill:none;stroke:#000000;stroke-width:1.5;stroke-linecap:round;stroke-linejoin:round;stroke-miterlimit:10"
     points="77.07,95.35 527.73,95.35 " />
  <text
     id="text58"
     lengthAdjust="spacingAndGlyphs"
     textLength="124.09"
     style="font-size:12px;font-family:Arial;text-anchor:end;white-space:pre"
     y="87.040001"
     x="527.72998">asymptote lower bound</text>
  <line
     id="line60"
     style="fill:none;stroke:#0a4d80;stroke-width:0.75;stroke-linecap:round;stroke-linejoin:round;stroke-miterlimit:10"
     y2="261.01999"
     x2="392.73999"
     y1="261.01999"
     x1="371.14001" />
  <line
     id="line62"
     style="fill:none;stroke:#0a4d80;stroke-width:0.75;stroke-linecap:round;stroke-linejoin:round;stroke-miterlimit:10;stroke-dasharray:4.5,4.5;stroke-dashoffset:0"
     y2="275.42001"
     x2="392.73999"
     y1="275.42001"
     x1="371.14001" />
  <line
     id="line64"
     style="fill:none;stroke:#ed7842;stroke-width:0.75;stroke-linecap:round;stroke-linejoin:round;stroke-miterlimit:10"
     y2="289.82001"
     x2="392.73999"
     y1="289.82001"
     x1="371.14001" />
  <line
     id="line66"
     style="fill:none;stroke:#ed7842;stroke-width:0.75;stroke-linecap:round;stroke-linejoin:round;stroke-miterlimit:10;stroke-dasharray:4.5,4.5;stroke-dashoffset:0"
     y2="304.22"
     x2="392.73999"
     y1="304.22"
     x1="371.14001" />
  <line
     id="line68"
     style="fill:none;stroke:#3bb370;stroke-width:0.75;stroke-linecap:round;stroke-linejoin:round;stroke-miterlimit:10"
     y2="318.62"
     x2="392.73999"
     y1="318.62"
     x1="371.14001" />
  <line
     id="line70"
     style="fill:none;stroke:#3bb370;stroke-width:0.75;stroke-linecap:round;stroke-linejoin:round;stroke-miterlimit:10;stroke-dasharray:4.5,4.5;stroke-dashoffset:0"
     y2="333.01999"
     x2="392.73999"
     y1="333.01999"
     x1="371.14001" />
  <text
     id="text72"
     lengthAdjust="spacingAndGlyphs"
     textLength="106.75"
     style="font-size:12px;font-family:Arial;white-space:pre"
     y="265.32001"
     x="403.54001">Continuous reaches</text>
  <text
     id="text74"
     lengthAdjust="spacingAndGlyphs"
     textLength="116.76"
     style="font-size:12px;font-family:Arial;white-space:pre"
     y="279.72"
     x="403.54001">Continuous nocursors</text>
  <text
     id="text76"
     lengthAdjust="spacingAndGlyphs"
     textLength="91.379997"
     style="font-size:12px;font-family:Arial;white-space:pre"
     y="294.12"
     x="403.54001">Terminal reaches</text>
  <text
     id="text78"
     lengthAdjust="spacingAndGlyphs"
     textLength="101.38"
     style="font-size:12px;font-family:Arial;white-space:pre"
     y="308.51999"
     x="403.54001">Terminal nocursors</text>
  <text
     id="text80"
     lengthAdjust="spacingAndGlyphs"
     textLength="111.41"
     style="font-size:12px;font-family:Arial;white-space:pre"
     y="322.92001"
     x="403.54001">CursorJump reaches</text>
  <text
     id="text82"
     lengthAdjust="spacingAndGlyphs"
     textLength="121.41"
     style="font-size:12px;font-family:Arial;white-space:pre"
     y="337.32001"
     x="403.54001">CursorJump nocursors</text>
  <g
     clip-path="url(#cpMC4wMHw1NzYuMDB8MC4wMHw0MzIuMDA=)"
     id="g146">
    <line
       x1="77.07"
       y1="358.56"
       x2="527.73"
       y2="358.56"
       style="stroke-width: 0.75;"
       id="line86" />
    <line
       x1="77.07"
       y1="358.56"
       x2="77.07"
       y2="365.76"
       style="stroke-width: 0.75;"
       id="line88" />
    <line
       x1="141.45"
       y1="358.56"
       x2="141.45"
       y2="365.76"
       style="stroke-width: 0.75;"
       id="line90" />
    <line
       x1="205.83"
       y1="358.56"
       x2="205.83"
       y2="365.76"
       style="stroke-width: 0.75;"
       id="line92" />
    <line
       x1="270.21"
       y1="358.56"
       x2="270.21"
       y2="365.76"
       style="stroke-width: 0.75;"
       id="line94" />
    <line
       x1="334.59"
       y1="358.56"
       x2="334.59"
       y2="365.76"
       style="stroke-width: 0.75;"
       id="line96" />
    <line
       x1="398.97"
       y1="358.56"
       x2="398.97"
       y2="365.76"
       style="stroke-width: 0.75;"
       id="line98" />
    <line
       x1="463.35"
       y1="358.56"
       x2="463.35"
       y2="365.76"
       style="stroke-width: 0.75;"
       id="line100" />
    <line
       x1="527.73"
       y1="358.56"
       x2="527.73"
       y2="365.76"
       style="stroke-width: 0.75;"
       id="line102" />
    <text
       x="77.07"
       y="384.48"
       text-anchor="middle"
       style="font-size: 12.00px; font-family: &quot;Arial&quot;;"
       textLength="44.70px"
       lengthAdjust="spacingAndGlyphs"
       id="text104">baseline</text>
    <text
       x="141.45"
       y="384.48"
       text-anchor="middle"
       style="font-size: 12.00px; font-family: &quot;Arial&quot;;"
       textLength="6.67px"
       lengthAdjust="spacingAndGlyphs"
       id="text106">5</text>
    <text
       x="205.83"
       y="384.48"
       text-anchor="middle"
       style="font-size: 12.00px; font-family: &quot;Arial&quot;;"
       textLength="13.35px"
       lengthAdjust="spacingAndGlyphs"
       id="text108">10</text>
    <text
       x="270.21"
       y="384.48"
       text-anchor="middle"
       style="font-size: 12.00px; font-family: &quot;Arial&quot;;"
       textLength="13.35px"
       lengthAdjust="spacingAndGlyphs"
       id="text110">15</text>
    <text
       x="334.59"
       y="384.48"
       text-anchor="middle"
       style="font-size: 12.00px; font-family: &quot;Arial&quot;;"
       textLength="13.35px"
       lengthAdjust="spacingAndGlyphs"
       id="text112">20</text>
    <text
       x="398.97"
       y="384.48"
       text-anchor="middle"
       style="font-size: 12.00px; font-family: &quot;Arial&quot;;"
       textLength="13.35px"
       lengthAdjust="spacingAndGlyphs"
       id="text114">25</text>
    <text
       x="463.35"
       y="384.48"
       text-anchor="middle"
       style="font-size: 12.00px; font-family: &quot;Arial&quot;;"
       textLength="13.35px"
       lengthAdjust="spacingAndGlyphs"
       id="text116">30</text>
    <text
       x="527.73"
       y="384.48"
       text-anchor="middle"
       style="font-size: 12.00px; font-family: &quot;Arial&quot;;"
       textLength="13.35px"
       lengthAdjust="spacingAndGlyphs"
       id="text118">35</text>
    <line
       x1="59.04"
       y1="347.47"
       x2="59.04"
       y2="95.35"
       style="stroke-width: 0.75;"
       id="line120" />
    <line
       x1="59.04"
       y1="347.47"
       x2="51.84"
       y2="347.47"
       style="stroke-width: 0.75;"
       id="line122" />
    <line
       x1="59.04"
       y1="297.04"
       x2="51.84"
       y2="297.04"
       style="stroke-width: 0.75;"
       id="line124" />
    <line
       x1="59.04"
       y1="246.62"
       x2="51.84"
       y2="246.62"
       style="stroke-width: 0.75;"
       id="line126" />
    <line
       x1="59.04"
       y1="196.19"
       x2="51.84"
       y2="196.19"
       style="stroke-width: 0.75;"
       id="line128" />
    <line
       x1="59.04"
       y1="145.77"
       x2="51.84"
       y2="145.77"
       style="stroke-width: 0.75;"
       id="line130" />
    <line
       x1="59.04"
       y1="95.35"
       x2="51.84"
       y2="95.35"
       style="stroke-width: 0.75;"
       id="line132" />
    <text
       x="44.64"
       y="351.77"
       text-anchor="end"
       style="font-size: 12.00px; font-family: &quot;Arial&quot;;"
       textLength="6.67px"
       lengthAdjust="spacingAndGlyphs"
       id="text134">0</text>
    <text
       x="44.64"
       y="301.34"
       text-anchor="end"
       style="font-size: 12.00px; font-family: &quot;Arial&quot;;"
       textLength="13.35px"
       lengthAdjust="spacingAndGlyphs"
       id="text136">20</text>
    <text
       x="44.64"
       y="250.92"
       text-anchor="end"
       style="font-size: 12.00px; font-family: &quot;Arial&quot;;"
       textLength="13.35px"
       lengthAdjust="spacingAndGlyphs"
       id="text138">40</text>
    <text
       x="44.64"
       y="200.49"
       text-anchor="end"
       style="font-size: 12.00px; font-family: &quot;Arial&quot;;"
       textLength="13.35px"
       lengthAdjust="spacingAndGlyphs"
       id="text140">60</text>
    <text
       x="44.64"
       y="150.07"
       text-anchor="end"
       style="font-size: 12.00px; font-family: &quot;Arial&quot;;"
       textLength="13.35px"
       lengthAdjust="spacingAndGlyphs"
       id="text142">80</text>
    <text
       x="44.64"
       y="99.64"
       text-anchor="end"
       style="font-size: 12.00px; font-family: &quot;Arial&quot;;"
       textLength="20.02px"
       lengthAdjust="spacingAndGlyphs"
       id="text144">100</text>
  </g>
  <g
     clip-path="url(#cpMC4wMHw1NzYuMDB8MC4wMHw0MzIuMDA=)"
     id="g28">
    <text
       x="302.40"
       y="34.67"
       text-anchor="middle"
       style="font-size: 14.40px; font-weight: bold; font-family: &quot;Arial&quot;;"
       textLength="171.99px"
       lengthAdjust="spacingAndGlyphs"
       id="text22">modeled process speeds</text>
    <text
       x="302.40"
       y="413.28"
       text-anchor="middle"
       style="font-size: 12.00px; font-family: &quot;Arial&quot;;"
       textLength="173.45px"
       lengthAdjust="spacingAndGlyphs"
       id="text24">trials completed in rotated phase</text>
    <text
       transform="translate(12.96,208.80) rotate(-90)"
       text-anchor="middle"
       style="font-size: 12.00px; font-family: &quot;Arial&quot;;"
       textLength="129.43px"
       lengthAdjust="spacingAndGlyphs"
       id="text26">percentage of saturation</text>
  </g>
</svg>
